<svg width="34" height="19" viewBox="0 0 34 19" fill="none" xmlns="http://www.w3.org/2000/svg">
<path d="M32.9543 2.84887C33.2509 2.84887 33.4912 2.6086 33.4912 2.31194C33.4912 2.01529 33.2509 1.77502 32.9543 1.77502H32.2224C32.03 1.77502 31.8718 1.61812 31.8718 1.42443C31.8718 1.23075 32.0287 1.07384 32.2224 1.07384H32.9543C33.2509 1.07384 33.4912 0.833575 33.4912 0.53692C33.4912 0.240265 33.2509 0 32.9543 0H32.2224C31.4367 0 30.798 0.638665 30.798 1.42443C30.798 1.54579 30.8152 1.66225 30.8434 1.77502H30.6031C30.3064 1.77502 30.0662 2.01529 30.0662 2.31194C30.0662 2.6086 30.3064 2.84887 30.6031 2.84887H32.9543Z" fill="url(#paint0_radial_25_9390)"/>
<path d="M26.8754 3.49109H22.5886C22.0872 3.49109 21.6802 3.89807 21.6802 4.39944C21.6802 4.90081 22.0872 5.30779 22.5886 5.30779H26.8754C27.731 5.30779 28.4273 6.00407 28.4273 6.86094C28.4273 7.7178 27.731 8.41408 26.8754 8.41408H19.0802V4.25479C19.0802 3.75342 18.6732 3.34644 18.1719 3.34644C17.6705 3.34644 17.2635 3.75342 17.2635 4.25479V9.32244C17.2635 10.1781 16.5672 10.8756 15.7104 10.8756C15.209 10.8756 14.802 11.2826 14.802 11.7839C14.802 12.2853 15.209 12.6923 15.7104 12.6923C17.2537 12.6923 18.5543 11.6491 18.9527 10.2308H26.8766C28.735 10.2308 30.2464 8.71932 30.2464 6.86094C30.2464 5.00255 28.735 3.49109 26.8766 3.49109H26.8754Z" fill="url(#paint1_radial_25_9390)"/>
<path d="M32.2176 3.34644C31.7162 3.34644 31.3093 3.75342 31.3093 4.25479V9.32244C31.3093 9.82381 31.7162 10.2308 32.2176 10.2308C32.719 10.2308 33.126 9.82381 33.126 9.32244V4.25479C33.126 3.75342 32.719 3.34644 32.2176 3.34644Z" fill="url(#paint2_radial_25_9390)"/>
<path d="M15.6454 8.9328V1.91238C15.6454 1.41101 15.2384 1.00403 14.737 1.00403C14.2357 1.00403 13.8287 1.41101 13.8287 1.91238V8.9328C13.8287 9.43417 14.2357 9.84115 14.737 9.84115C15.2384 9.84115 15.6454 9.43417 15.6454 8.9328Z" fill="url(#paint3_radial_25_9390)"/>
<path d="M24.9287 11.1639C24.4825 11.1639 24.1208 11.5256 24.1208 11.9718C24.1208 12.418 24.4825 12.7796 24.9287 12.7796C25.3749 12.7796 25.7365 12.418 25.7365 11.9718C25.7365 11.5256 25.3749 11.1639 24.9287 11.1639Z" fill="url(#paint4_radial_25_9390)"/>
<path d="M11.6516 3.34632C11.1502 3.34632 10.7432 3.7533 10.7432 4.25468V7.36955C10.7432 8.01067 10.2223 8.53165 9.58115 8.53165C8.94003 8.53165 8.41904 8.01067 8.41904 7.36955V4.25468C8.41904 3.7533 8.01206 3.34632 7.51069 3.34632C7.00932 3.34632 6.60234 3.7533 6.60234 4.25468V7.36955C6.60234 8.01067 6.08136 8.53165 5.44024 8.53165C4.79912 8.53165 4.27814 8.01067 4.27814 7.36955V6.07015V4.25468C4.27814 3.7533 3.87116 3.34632 3.36979 3.34632C2.86841 3.34632 2.46143 3.7533 2.46143 4.25468V6.98341C2.45898 7.8366 1.76393 8.53043 0.909512 8.53043C0.408141 8.53043 0.00115967 8.93741 0.00115967 9.43878C0.00115967 9.94015 0.408141 10.3471 0.909512 10.3471C1.77864 10.3471 2.57053 10.0162 3.16752 9.47433C3.92264 10.162 4.7979 10.3471 5.44024 10.3471C6.24439 10.3471 6.975 10.0247 7.51069 9.50497C8.04761 10.0247 8.77699 10.3471 9.58115 10.3471C11.2238 10.3471 12.5612 9.01096 12.5612 7.3671V4.25222C12.5612 3.75085 12.1542 3.34387 11.6528 3.34387L11.6516 3.34632Z" fill="url(#paint5_radial_25_9390)"/>
<path d="M6.38549 18.6611H5.44282C5.02725 17.7834 4.5173 16.712 4.30033 16.2364C4.13852 15.8784 3.97916 15.5205 3.81244 15.165C3.68618 14.8953 3.46553 14.7543 3.17132 14.7543C2.87835 14.7543 2.66137 14.8965 2.53511 15.165C2.45788 15.3268 2.38556 15.4911 2.31201 15.6541C1.98716 16.3651 1.37914 17.6804 0.930478 18.6611H6.10352e-05C0.0674826 18.514 0.134904 18.3669 0.2011 18.2198C0.560273 17.4291 1.38772 15.6369 1.74812 14.8463C1.94916 14.4037 2.27646 14.0973 2.74595 13.9624C3.49495 13.7467 4.25129 14.101 4.58105 14.8193C4.98067 15.6897 5.82038 17.4524 6.38549 18.6611Z" fill="url(#paint6_radial_25_9390)"/>
<path d="M27.0581 18.6611H26.1154C25.6999 17.7834 25.1899 16.712 24.9729 16.2364C24.8111 15.8784 24.6518 15.5205 24.485 15.165C24.3588 14.8953 24.1381 14.7543 23.8439 14.7543C23.551 14.7543 23.334 14.8965 23.2077 15.165C23.1305 15.3268 23.0582 15.4911 22.9846 15.6541C22.6598 16.3651 22.0517 17.6804 21.6031 18.6611H20.6727C20.7401 18.514 20.8075 18.3669 20.8737 18.2198C21.2329 17.4291 22.0603 15.6369 22.4207 14.8463C22.6218 14.4037 22.9491 14.0973 23.4186 13.9624C24.1676 13.7467 24.9239 14.101 25.2537 14.8193C25.6533 15.6897 26.493 17.4524 27.0581 18.6611Z" fill="url(#paint7_radial_25_9390)"/>
<path d="M19.6687 18.6563H18.5054C17.9844 18.0911 17.2955 17.3422 17.0957 17.1264C16.5048 17.1264 15.9127 17.1264 15.3219 17.1264H15.2716V17.1779C15.2716 17.5236 15.2716 17.8705 15.2716 18.2162C15.2716 18.2162 15.2716 18.2186 15.2716 18.2199V18.6526H14.9431C14.8867 18.6661 14.8279 18.6648 14.769 18.6526H14.4258V17.9735C14.4258 17.5555 14.4258 17.1362 14.4258 16.7182V16.272C14.4258 16.0428 14.6109 15.8577 14.8401 15.8577H14.8977C15.127 15.8577 15.3121 16.0428 15.3121 16.272C15.6663 16.272 16.0218 16.272 16.3761 16.272C16.8468 16.272 17.3176 16.272 17.7871 16.272C17.9746 16.272 18.1597 16.2156 18.3044 16.0967C18.769 15.7167 18.6415 14.9812 18.0494 14.7814C17.9685 14.7544 17.8827 14.7446 17.7969 14.7446C17.4879 14.7446 17.1778 14.7446 16.8689 14.7446H16.3565C15.8625 14.7446 15.3672 14.7446 14.8732 14.7446H14.861C14.6268 14.7446 14.4368 14.5546 14.4368 14.3204C14.4368 14.0863 14.6268 13.8963 14.861 13.8963H16.2167H17.7809C18.2002 13.8963 18.6108 14.0459 18.9173 14.3315C19.2372 14.6306 19.4174 15.002 19.4297 15.4433C19.4481 16.0673 19.1808 16.549 18.6586 16.8861C18.5189 16.9756 18.3706 17.0369 18.2161 17.0761L18.2247 17.0798C18.2811 17.1411 18.335 17.2012 18.3889 17.26C18.5017 17.3826 19.3365 18.2934 19.67 18.655L19.6687 18.6563Z" fill="url(#paint8_radial_25_9390)"/>
<path d="M31.9909 13.9292C31.8965 13.9071 31.8009 13.8998 31.704 13.8998C30.9489 13.8998 30.195 13.8961 29.4411 13.8998C28.7976 13.9034 28.1773 14.422 28.0817 15.0594C28.0461 15.2911 28.0584 15.5093 28.1184 15.7128V15.7152C28.1736 15.9776 28.3146 16.1676 28.4408 16.2914C28.4837 16.3343 28.5377 16.3797 28.6039 16.4238C28.6063 16.425 28.6075 16.4262 28.61 16.4275C28.6137 16.4299 28.6174 16.4324 28.621 16.4348C28.6578 16.4593 28.6799 16.4704 28.6799 16.4704C28.9005 16.5966 29.2364 16.7033 29.7427 16.7033H30.5689C30.9293 16.7033 31.2897 16.7057 31.6501 16.7033C32.046 16.6996 32.2986 17.0551 32.2054 17.4045C32.1404 17.6472 31.9235 17.8102 31.655 17.8102C31.2272 17.8102 30.7994 17.8102 30.3703 17.8102C30.0589 17.8102 29.7488 17.8151 29.4374 17.8078C29.2413 17.8041 29.0795 17.6913 28.9888 17.5369C28.9128 17.4057 28.7743 17.3236 28.6223 17.3236C28.2962 17.3236 28.0915 17.6778 28.2545 17.9598C28.4531 18.3042 28.7963 18.5666 29.2352 18.6377C29.3026 18.6487 29.3725 18.6548 29.4411 18.6548C30.1975 18.6548 30.955 18.6597 31.7126 18.6548C32.3721 18.6499 32.9519 18.1387 33.0512 17.4878C33.1187 17.0465 33.0071 16.6567 32.7129 16.322C32.5388 16.1382 32.2005 15.8893 31.6231 15.8562C31.2713 15.8562 30.9183 15.8562 30.5664 15.8562C30.2146 15.8562 29.8358 15.8562 29.4718 15.8562C29.4301 15.8562 29.3872 15.8562 29.3455 15.8476C29.0905 15.8011 28.9201 15.5939 28.9079 15.3205C28.8932 15.0043 29.1543 14.7431 29.4718 14.7431C30.2048 14.7431 30.9391 14.7431 31.6722 14.7431C31.72 14.7431 31.769 14.7456 31.8144 14.7579C31.9639 14.7946 32.0902 14.8915 32.1613 15.03C32.2324 15.171 32.3684 15.2678 32.5266 15.2678H32.5744C32.8637 15.2678 33.0598 14.9699 32.9421 14.7051C32.7693 14.3153 32.4236 14.0248 31.9884 13.9255L31.9909 13.9292Z" fill="url(#paint9_radial_25_9390)"/>
<path d="M12.1113 13.8962H11.6124V13.895H10.7641V13.8975H9.40711C9.17297 13.8975 8.98419 14.0875 8.98419 14.3216C8.98419 14.5558 9.17297 14.7445 9.40711 14.7445H10.7653V16.359H10.7629C10.7249 17.0087 10.2701 17.613 9.5775 17.7687C9.46227 17.7944 9.34214 17.8067 9.22323 17.8079C8.78315 17.8104 8.81135 17.8104 8.25971 17.8104C8.02435 17.8104 7.83557 18.0004 7.83557 18.2357C7.83557 18.4699 8.02435 18.6599 8.25849 18.6611C8.80522 18.6623 8.77212 18.6636 9.2073 18.6562C10.1855 18.6403 10.9088 18.1904 11.3648 17.3274C11.5266 17.0209 11.6063 16.6961 11.6136 16.359V14.7433H12.1125C12.3467 14.7433 12.5355 14.5533 12.5355 14.3204C12.5355 14.0875 12.3467 13.8975 12.1125 13.8975L12.1113 13.8962Z" fill="url(#paint10_radial_25_9390)"/>
<defs>
<radialGradient id="paint0_radial_25_9390" cx="0" cy="0" r="1" gradientUnits="userSpaceOnUse" gradientTransform="translate(31.7787 1.42443) scale(1.57521)">
<stop offset="0.42" stop-color="#005F60"/>
<stop offset="0.79" stop-color="#164D53"/>
</radialGradient>
<radialGradient id="paint1_radial_25_9390" cx="0" cy="0" r="1" gradientUnits="userSpaceOnUse" gradientTransform="translate(22.5236 8.01936) scale(6.38298)">
<stop offset="0.42" stop-color="#005F60"/>
<stop offset="0.79" stop-color="#164D53"/>
</radialGradient>
<radialGradient id="paint2_radial_25_9390" cx="0" cy="0" r="1" gradientUnits="userSpaceOnUse" gradientTransform="translate(32.2176 6.78861) scale(2.51789 2.51789)">
<stop offset="0.42" stop-color="#005F60"/>
<stop offset="0.79" stop-color="#164D53"/>
</radialGradient>
<radialGradient id="paint3_radial_25_9390" cx="0" cy="0" r="1" gradientUnits="userSpaceOnUse" gradientTransform="translate(14.7358 5.42198) scale(3.18965 3.18965)">
<stop offset="0.42" stop-color="#005F60"/>
<stop offset="0.79" stop-color="#164D53"/>
</radialGradient>
<radialGradient id="paint4_radial_25_9390" cx="0" cy="0" r="1" gradientUnits="userSpaceOnUse" gradientTransform="translate(24.9287 11.9718) scale(0.807834)">
<stop offset="0.42" stop-color="#005F60"/>
<stop offset="0.79" stop-color="#164D53"/>
</radialGradient>
<radialGradient id="paint5_radial_25_9390" cx="0" cy="0" r="1" gradientUnits="userSpaceOnUse" gradientTransform="translate(6.27994 6.84734) scale(5.08481 5.08481)">
<stop offset="0.42" stop-color="#005F60"/>
<stop offset="0.79" stop-color="#164D53"/>
</radialGradient>
<radialGradient id="paint6_radial_25_9390" cx="0" cy="0" r="1" gradientUnits="userSpaceOnUse" gradientTransform="translate(3.19216 16.2793) scale(2.81577)">
<stop offset="0.34" stop-color="#B2D235"/>
<stop offset="0.7" stop-color="#9ACA3C"/>
</radialGradient>
<radialGradient id="paint7_radial_25_9390" cx="0" cy="0" r="1" gradientUnits="userSpaceOnUse" gradientTransform="translate(23.866 16.2793) scale(2.81577)">
<stop offset="0.34" stop-color="#B2D235"/>
<stop offset="0.7" stop-color="#9ACA3C"/>
</radialGradient>
<radialGradient id="paint8_radial_25_9390" cx="0" cy="0" r="1" gradientUnits="userSpaceOnUse" gradientTransform="translate(17.0479 16.2793) scale(2.50563)">
<stop offset="0.34" stop-color="#B2D235"/>
<stop offset="0.7" stop-color="#9ACA3C"/>
</radialGradient>
<radialGradient id="paint9_radial_25_9390" cx="0" cy="0" r="1" gradientUnits="userSpaceOnUse" gradientTransform="translate(30.5664 16.2791) scale(2.44434)">
<stop offset="0.34" stop-color="#B2D235"/>
<stop offset="0.7" stop-color="#9ACA3C"/>
</radialGradient>
<radialGradient id="paint10_radial_25_9390" cx="0" cy="0" r="1" gradientUnits="userSpaceOnUse" gradientTransform="translate(10.1843 16.2781) scale(2.36711)">
<stop offset="0.34" stop-color="#B2D235"/>
<stop offset="0.7" stop-color="#9ACA3C"/>
</radialGradient>
</defs>
</svg>
