<svg width="271" height="234" viewBox="0 0 271 234" fill="none" xmlns="http://www.w3.org/2000/svg">
<path d="M204.546 130.184C204.354 130.9 204.211 131.165 204.211 131.165H195.686C193.798 126.722 193.627 118.258 193.615 116.159C193.613 115.893 193.827 115.678 194.093 115.678H205.1C205.391 115.678 205.63 115.914 205.631 116.207C205.697 124.622 204.989 128.562 204.548 130.182L204.546 130.184Z" fill="#B2D235"/>
<path d="M195.232 129.607C191.577 128.693 189.251 125.581 188.568 122.902C188.061 120.918 188.412 119.132 189.505 118.124C190.311 117.381 191.179 117.069 192.083 117.198C192.48 117.256 192.844 117.396 193.171 117.579C193.404 117.71 193.615 117.583 193.631 117.206C193.667 116.276 194.951 119.315 194.98 119.363L193.775 120.596C193.764 120.227 193.625 119.871 193.382 119.592C193.019 119.172 192.47 118.689 191.878 118.607C191.414 118.541 190.954 118.726 190.471 119.17C189.768 119.817 189.572 121.081 189.947 122.55C190.44 124.478 191.931 126.67 194.264 127.759C194.676 127.952 194.697 127.73 194.597 127.384L195.232 129.607Z" fill="#9ACA3C"/>
<path d="M204.546 130.184C204.354 130.9 204.211 131.165 204.211 131.165H195.686C193.798 126.722 193.627 118.258 193.615 116.159C193.613 115.893 193.827 115.678 194.093 115.678H196.298C196.298 115.678 195.278 128.777 204.546 130.184Z" fill="#9ACA3C"/>
<path d="M202.641 115.678C202.641 115.678 203.351 121.901 202.695 125.513C202.647 125.773 202.678 126.046 202.803 126.279C202.945 126.549 203.197 126.751 203.611 126.308C204.821 125.013 204.548 115.676 204.548 115.676H202.643L202.641 115.678Z" fill="#B2D235"/>
<g opacity="0.2">
<path d="M23.0664 233.407H256.925C256.925 233.407 271.728 215.384 270.223 194.116C268.709 172.702 252.915 160.867 233.44 163.013C137.77 173.547 226.723 54.7502 105.411 60.8929C31.8803 64.6167 67.9019 144.371 41.8123 141.709C-18.8939 135.513 -2.71326 224.697 23.0664 233.409V233.407Z" fill="#E9FAFA"/>
</g>
<path d="M154.097 93.5966L162.482 111.756C162.482 111.756 154.699 116.355 154.097 116.203C153.495 116.051 149.736 102.43 149.736 102.43L154.097 93.5947V93.5966Z" fill="#FABBA5"/>
<path d="M131.254 184.611H124.341C122.109 184.611 120.285 182.784 120.285 180.554C120.285 178.322 122.111 176.497 124.341 176.497H131.254C133.486 176.497 135.311 178.324 135.311 180.554C135.311 182.786 133.484 184.611 131.254 184.611Z" fill="#122A2D"/>
<path d="M128.983 177.452H126.025V225.638H128.983V177.452Z" fill="#122A2D"/>
<path d="M141.136 228.243C141.082 228.243 141.026 228.238 140.97 228.224C128.746 225.44 114.748 228.199 114.608 228.228C114.207 228.309 113.819 228.049 113.738 227.651C113.657 227.25 113.915 226.862 114.315 226.781C114.458 226.752 128.758 223.927 141.298 226.785C141.696 226.875 141.944 227.272 141.854 227.668C141.775 228.011 141.471 228.242 141.134 228.242L141.136 228.243Z" fill="#122A2D"/>
<path d="M120.356 231.149C120.731 229.574 119.758 227.994 118.183 227.619C116.608 227.245 115.028 228.218 114.653 229.793C114.279 231.368 115.252 232.948 116.827 233.322C118.402 233.697 119.982 232.723 120.356 231.149Z" fill="#122A2D"/>
<path d="M140.341 231.136C140.712 229.561 139.737 227.982 138.161 227.611C136.586 227.239 135.007 228.214 134.635 229.79C134.264 231.365 135.239 232.944 136.815 233.316C138.39 233.687 139.969 232.712 140.341 231.136Z" fill="#122A2D"/>
<path d="M109.773 153.806C109.773 153.806 111.126 165.076 110.826 169.885H116.582C116.582 169.885 116.836 159.968 114.282 153.806C111.729 147.646 109.775 153.806 109.775 153.806H109.773Z" fill="#383463"/>
<path d="M100.478 180.552H163.415C163.415 180.552 167.37 173.892 157.251 169.473C147.132 165.055 128.877 168.773 122.453 167.42C116.03 166.067 108.511 165.264 99.1717 170.168C93.9911 172.887 91.0121 180.552 100.478 180.552Z" fill="#C8D985"/>
<path d="M115.643 159.226C121.643 158.812 134.953 156.897 138.784 151.599C143.351 145.285 137.281 100.621 119.099 95.9637C100.917 91.3047 91.9012 102.274 90.098 110.84C88.2948 119.405 85.1388 148.256 89.6477 153.666C94.1547 159.076 102.045 160.165 115.643 159.226Z" fill="#C8D985"/>
<path d="M193.053 231.931V233.407H186.027L185.219 230.551L193.053 231.931Z" fill="#9ACA3C"/>
<path d="M195.934 215.559C195.934 215.559 198.555 223.401 202.539 225.732C205.751 227.612 211.89 227.893 213.527 231.628C213.891 232.46 213.293 233.407 212.419 233.407H195.934C195.934 233.407 189.936 231.667 187.105 232.09C184.274 232.514 184.409 225.364 185.217 222.722C186.025 220.08 185.352 215.557 185.352 215.557H195.932L195.934 215.559Z" fill="#9ACA3C"/>
<path d="M106.639 138.068C106.639 138.068 99.4354 148.593 101.452 160.465C103.469 172.337 110.376 170.393 119.409 171.155C132.27 172.241 145.699 170.815 146.112 173.574C146.753 177.854 164.144 172.063 164.144 172.063C164.144 172.063 184.22 162.335 182.325 157.22C177.483 144.152 120.493 135.532 106.639 138.07V138.068Z" fill="#46511C"/>
<path d="M181.942 156.387C186.591 162.793 196.875 214.876 196.325 215.892C195.357 217.674 193.863 216.456 188.919 218.64C183.554 221.011 180.539 218.741 180.539 218.741C180.539 218.741 177.015 208.474 171.03 191.129C168.882 184.903 166.556 178.168 164.196 171.353C156.36 148.716 177.689 150.521 181.942 156.385V156.387Z" fill="#46511C"/>
<path d="M169.833 163.405C172.418 170.843 171.8 193.361 171.8 193.361L169.202 185.833L160.043 155.586C160.043 155.586 167.945 157.971 169.833 163.403V163.405Z" fill="#46511C"/>
<path d="M117.229 47.7509C117.229 47.7509 115.732 47.3044 114.536 48.1973C114.536 48.1973 115.562 47.9375 116.601 48.3898C117.641 48.842 117.229 47.7509 117.229 47.7509Z" fill="#752D4B"/>
<path d="M118.114 48.2955C118.114 48.2955 116.588 47.9664 115.922 46.5982C115.922 46.5982 116.717 47.3256 117.839 47.4257C118.961 47.5257 118.114 48.2955 118.114 48.2955Z" fill="#752D4B"/>
<path d="M136.435 49.9062C136.435 49.9062 137.16 54.3921 136.706 55.7064C136.254 57.0208 134.731 50.4681 134.731 50.4681L136.435 49.9062Z" fill="#752D4B"/>
<path d="M162.874 231.931V233.407H155.848L155.038 230.551L162.874 231.931Z" fill="#9ACA3C"/>
<path d="M165.755 215.559C165.755 215.559 168.376 223.401 172.36 225.732C175.572 227.612 181.711 227.893 183.348 231.628C183.712 232.46 183.114 233.407 182.24 233.407H165.755C165.755 233.407 159.757 231.667 156.926 232.09C154.095 232.514 154.23 225.364 155.038 222.722C155.846 220.08 155.173 215.557 155.173 215.557H165.753L165.755 215.559Z" fill="#9ACA3C"/>
<path d="M167.959 171.886C171.055 200.004 169.548 217.699 168.821 218.596C167.543 220.17 166.298 218.7 161.037 219.94C155.327 221.285 152.779 218.5 152.779 218.5C152.779 218.5 151.201 207.762 148.503 189.612C147.535 183.1 146.484 176.051 145.416 168.919C142.246 147.744 165.205 155.165 165.859 160.696C166.107 162.805 167.687 169.425 167.959 171.888V171.886Z" fill="#46511C"/>
<path d="M100.147 90.0422C100.269 91.4721 100.998 96.0561 101.883 101.466C102.03 102.36 102.18 103.277 102.334 104.204C103.821 113.237 105.524 123.396 105.582 124.996C105.757 129.788 102.792 141.79 102.592 144.904C102.541 145.683 104.951 145.289 107.628 145.137C110.576 144.969 116.022 147.206 124.043 147.234C137.818 147.283 142.779 140.789 142.779 140.789C141.315 136.65 141.775 131.036 142.489 126.501C142.843 124.249 148.405 91.32 148.405 91.32L144.642 81.644C127.093 76.9946 107.814 80.3007 107.814 80.3007C107.814 80.3007 99.4046 81.3688 100.147 90.0364V90.0422Z" fill="#164D53"/>
<path d="M122.681 77.1523C122.681 77.1523 122.965 77.7142 123.477 78.6745C123.753 79.1941 124.095 79.8311 124.495 80.5586C125.452 82.3002 126.733 84.5614 128.21 86.9804C132.526 94.0565 138.492 102.478 142.816 103.201C143.655 103.34 147.921 108.063 148.403 107.758C156.039 102.94 159.46 93.3945 156.939 91.3912C150.795 86.5108 145.345 80.4643 138.713 79.3308C136.829 79.0075 134.797 78.7015 132.832 78.4244C129.162 77.9086 125.731 77.4987 123.951 77.2947C123.146 77.2004 122.679 77.1504 122.679 77.1504L122.681 77.1523Z" fill="#164D53"/>
<path d="M100.521 105.944C103.101 104.502 105.89 103.34 108.617 102.913C112.966 102.233 117.469 93.6004 120.518 86.378C121.42 84.2381 122.194 82.2251 122.798 80.5778C123.058 79.8696 123.285 79.2307 123.477 78.6765C123.672 78.1241 123.83 77.6604 123.953 77.2986C124.136 76.752 124.234 76.4441 124.234 76.4441C124.234 76.4441 120.645 77.3236 116.059 78.2627C114.282 78.6264 112.354 78.9998 110.428 79.3346C103.8 80.4835 101.029 83.2778 95.7424 89.0742C90.4541 94.8706 95.2575 108.88 100.523 105.946L100.521 105.944Z" fill="#164D53"/>
<path d="M117.483 77.9645C118.574 77.7335 119.421 76.8329 119.619 75.684C120.017 73.3728 120.51 70.2802 120.835 67.3878C120.922 66.618 120.15 63.6717 120.119 63.6217C120.208 63.6467 132.251 67.1511 130.781 70.8498C130.715 71.0153 130.656 71.1885 130.6 71.3714C130.246 72.551 130.123 74.0386 130.124 75.5397C130.124 76.4365 130.184 77.2967 130.273 78.078C131.1 78.1877 131.96 78.3032 132.834 78.4263C132.986 79.1095 133.617 87.5212 126.397 87.5212C120.473 87.5212 116.251 79.0614 116.057 78.2627C116.544 78.1627 117.021 78.0645 117.483 77.9664V77.9645Z" fill="#FABBA5"/>
<path d="M120.625 67.0202C120.699 67.5687 120.47 69.6163 120.473 70.2456C123.191 75.7764 130.026 75.5012 130.126 75.5397C130.126 74.0386 130.248 72.551 130.602 71.3714C127.896 70.0185 122.159 66.7854 120.625 67.0202Z" fill="#ED938B"/>
<path d="M121.368 70.2455C121.834 71.7524 127.007 72.9705 129.078 73.2015C130.442 73.3554 132.532 73.6826 133.696 72.8435C134.683 72.1334 137.455 66.0349 136.804 62.8942C136.677 62.2842 136.51 59.7285 136.756 58.0081C137.166 55.1484 135.253 50.4239 135.253 50.4239C127.369 44.5928 120.483 52.8237 119.906 55.999C119.328 59.1724 119.492 64.1682 121.37 70.2455H121.368Z" fill="#FABBA5"/>
<path d="M115.2 60.8389C116.297 64.9245 120.508 67.0452 120.508 67.0452C120.114 64.4992 119.923 59.2282 120.512 59.2378C121.103 59.2455 122.706 61.1449 122.552 60.2077C122.396 59.2725 121.518 57.8946 122.679 55.8797C123.839 53.8648 122.844 51.3881 122.844 51.3881C122.844 51.3881 122.852 51.3919 122.869 51.3977C122.875 51.3977 122.879 51.4015 122.885 51.4054C123.094 51.4997 123.333 51.5824 123.593 51.6517C123.593 51.6517 123.599 51.6517 123.601 51.6517C124.295 51.8422 125.14 51.95 126.048 51.9962C126.851 52.0366 127.7 52.0289 128.537 51.9808C129.434 51.9288 130.317 51.8326 131.108 51.7075C131.858 51.5863 132.528 51.44 133.055 51.2726C133.379 51.1706 133.663 51.1052 133.916 51.0667C134.116 51.0359 134.297 51.0224 134.456 51.0243C135.588 51.032 135.726 51.7498 135.726 51.7498C137.439 49.3116 137.104 47.6681 136.691 46.1363C135.95 43.4017 133.792 42.0757 133.792 42.0757C133.225 43.0514 132.116 43.2015 132.116 43.2015C132.193 42.9725 132.234 42.755 132.253 42.5588C132.312 41.8948 132.105 41.4426 132.08 41.3925V41.3887C132.08 41.3887 129.786 43.5979 124.245 42.9533C116.688 42.0757 116.796 47.6777 116.796 47.6777C113.099 49.9043 114.104 56.7495 115.2 60.837V60.8389Z" fill="#752D4B"/>
<path d="M122.211 60.9315C122.211 60.9315 120.394 58.0102 118.695 59.3343C116.994 60.6583 118.737 63.1042 119.394 64.0414C120.096 65.046 120.502 65.0537 121.739 64.7304C122.977 64.4071 122.213 60.9315 122.213 60.9315H122.211Z" fill="#FABBA5"/>
<path d="M121.821 64.4876C121.417 65.2265 120.462 65.1784 119.877 64.7185C119.509 64.4298 119.248 64.0238 119.009 63.6216C118.722 63.1366 118.445 62.6382 118.245 62.1051C117.91 61.216 117.756 59.9998 118.572 59.3397C119.377 58.6892 120.45 58.9933 121.097 59.7227C121.182 59.8189 121.045 59.9613 120.96 59.8651C120.358 59.1877 119.325 58.8875 118.609 59.5706C117.887 60.2577 118.172 61.4566 118.518 62.2687C118.817 62.9673 119.209 63.7332 119.713 64.2932C120.198 64.834 121.211 65.1996 121.653 64.3875C121.715 64.2739 121.882 64.3759 121.821 64.4895V64.4876Z" fill="#EF9F8A"/>
<path d="M119.84 59.9133C120.129 60.0364 120.408 60.2039 120.571 60.4925C120.762 60.8274 120.693 61.0872 120.597 61.4317C120.416 62.0821 121.047 62.213 121.359 62.6267C121.536 62.8615 121.586 63.1502 121.439 63.4119C121.376 63.5235 121.21 63.4235 121.272 63.3099C121.615 62.696 120.46 62.3438 120.356 61.7761C120.314 61.5414 120.435 61.3816 120.489 61.1642C120.618 60.6446 120.19 60.2789 119.786 60.1077C119.673 60.0595 119.723 59.8633 119.838 59.9133H119.84Z" fill="#EF9F8A"/>
<path d="M116.796 47.6797C117.983 50.2816 122.846 51.3881 122.846 51.3881C122.846 51.3881 122.854 51.392 122.871 51.3977C122.877 51.3977 122.881 51.4016 122.887 51.4054C122.981 51.4401 123.229 51.5305 123.595 51.6518C123.595 51.6518 123.601 51.6518 123.602 51.6518C124.297 51.8423 125.142 51.9501 126.05 51.9962C126.853 52.0367 127.702 52.029 128.539 51.9809C129.435 51.9289 130.319 51.8327 131.11 51.7076C131.86 51.5863 132.515 51.3747 133.057 51.2727C135.54 50.805 133.078 46.985 133.078 46.985C132.253 48.3437 130.985 48.5053 130.985 48.5053C131.856 47.0909 130.505 45.4147 130.505 45.4147C129.201 47.9049 126.728 46.3865 126.728 46.3865C126.728 46.3865 128.017 46.0825 128.704 45.0548C129.797 43.421 128.968 42.02 128.968 42.02C128.968 42.02 127.73 43.5499 124.243 42.9533C116.794 41.6794 116.794 47.6778 116.794 47.6778L116.796 47.6797Z" fill="#7E3254"/>
<path d="M128.106 41.9083C128.106 41.9083 127.053 43.6057 124.867 43.521L124.759 43.0303C124.759 43.0303 126.593 43.0418 128.106 41.9083Z" fill="#7E3254"/>
<path d="M132.817 41.6177C132.817 41.6177 132.674 43.1803 131.683 43.5229V43.0379C131.683 43.0379 132.372 42.7416 132.817 41.6158V41.6177Z" fill="#752D4B"/>
<path d="M134.524 47.0215C134.524 47.0215 135.582 50.7645 133.612 51.1032L133.796 49.7446C133.796 49.7446 134.733 48.8805 134.524 47.0215Z" fill="#7E3254"/>
<path d="M131.521 45.7552C131.521 45.7552 131.866 48.0472 130.954 48.6842C130.042 49.3212 130.184 48.2955 130.184 48.2955C130.184 48.2955 131.358 47.645 131.52 45.7572L131.521 45.7552Z" fill="#7E3254"/>
<path d="M124.932 132.401C124.932 132.401 114.336 134.966 106.117 135.151C93.741 135.428 87.9908 133.173 85.8432 131.987C85.1677 131.614 84.7558 130.902 84.7674 130.132C84.8213 126.379 85.7758 113.561 95.1747 92.4631L112.539 95.4671C112.539 95.4671 98.1403 119.17 100.099 120.6C100.831 121.133 110.768 125.279 119.284 124.103L124.93 132.401H124.932Z" fill="#FABBA5"/>
<path d="M143.38 172.031C146.386 172.839 149.521 172.67 152.421 171.536C152.592 171.469 152.519 171.188 152.344 171.255C149.492 172.371 146.417 172.545 143.457 171.75C143.276 171.702 143.199 171.981 143.38 172.031Z" fill="#646C42"/>
<path d="M148.222 173.551C147.138 173.241 146.151 172.745 145.254 172.063C145.106 171.95 144.96 172.202 145.108 172.314C146.024 173.01 147.04 173.514 148.145 173.83C148.326 173.882 148.402 173.601 148.222 173.549V173.551Z" fill="#646C42"/>
<path d="M147.881 145.826C147.466 146.701 147.206 147.614 147.094 148.576C147.081 148.691 147.225 148.749 147.313 148.701C148.224 148.21 149.18 147.871 150.196 147.671C150.379 147.635 150.302 147.356 150.119 147.39C149.08 147.594 148.099 147.946 147.167 148.449C147.24 148.491 147.313 148.531 147.387 148.574C147.491 147.664 147.741 146.798 148.133 145.97C148.212 145.803 147.962 145.654 147.883 145.824L147.881 145.826Z" fill="#646C42"/>
<path d="M169.281 185.746C169.219 185.746 169.167 185.698 169.165 185.637C169.156 185.471 168.244 169.487 165.75 160.727C164.528 156.437 150.889 151.459 145.081 149.517C143.336 148.934 142.379 147.979 142.341 147.939C142.296 147.893 142.296 147.82 142.341 147.775C142.387 147.731 142.46 147.731 142.504 147.775C142.514 147.785 143.463 148.732 145.154 149.296C148.393 150.379 153.137 152.086 157.328 154.076C162.52 156.537 165.428 158.754 165.971 160.661C168.473 169.446 169.387 185.458 169.396 185.623C169.4 185.687 169.35 185.742 169.287 185.746C169.285 185.746 169.283 185.746 169.281 185.746Z" fill="#646C42"/>
<path d="M173.293 187.94C175.081 190.015 176.659 192.247 178.02 194.624C178.112 194.785 178.364 194.639 178.27 194.477C176.896 192.079 175.302 189.83 173.497 187.736C173.374 187.594 173.17 187.8 173.291 187.942L173.293 187.94Z" fill="#646C42"/>
<path d="M175.22 191.954C175.489 192.911 175.672 193.879 175.77 194.868C175.787 195.053 176.078 195.055 176.061 194.868C175.961 193.854 175.776 192.859 175.501 191.877C175.451 191.698 175.17 191.773 175.22 191.954Z" fill="#646C42"/>
<path d="M137.695 148.508C134.435 148.624 131.181 148.847 127.936 149.178C127.752 149.197 127.75 149.488 127.936 149.469C131.181 149.138 134.435 148.914 137.695 148.799C137.882 148.793 137.882 148.503 137.695 148.508Z" fill="#646C42"/>
<path d="M137.499 148.845C134.601 149.615 131.839 150.762 129.247 152.267C129.085 152.361 129.231 152.611 129.393 152.517C131.964 151.024 134.703 149.888 137.576 149.124C137.757 149.076 137.68 148.795 137.499 148.843V148.845Z" fill="#646C42"/>
<path d="M109.968 152.713V153.799C109.968 153.985 110.258 153.985 110.258 153.799V152.713C110.258 152.527 109.968 152.527 109.968 152.713Z" fill="#646C42"/>
<path d="M110.399 156.791C110.553 157.411 110.707 158.03 110.861 158.652C110.905 158.833 111.186 158.756 111.142 158.575C110.988 157.955 110.834 157.336 110.68 156.714C110.636 156.533 110.355 156.61 110.399 156.791Z" fill="#646C42"/>
<path d="M112.828 160.744C113.447 161.158 114.067 161.571 114.687 161.985C114.842 162.089 114.989 161.837 114.833 161.735C114.213 161.321 113.594 160.908 112.974 160.494C112.818 160.39 112.672 160.642 112.828 160.744Z" fill="#646C42"/>
<path d="M117.206 162.899C117.685 162.982 118.133 163.144 118.555 163.388C118.716 163.482 118.863 163.232 118.701 163.138C118.26 162.88 117.787 162.707 117.283 162.62C117.1 162.589 117.021 162.868 117.206 162.901V162.899Z" fill="#646C42"/>
<path d="M122.357 163.681C122.925 163.742 123.491 163.804 124.059 163.865C124.243 163.885 124.243 163.594 124.059 163.575C123.491 163.513 122.925 163.452 122.357 163.39C122.173 163.371 122.173 163.661 122.357 163.681Z" fill="#646C42"/>
<path d="M127.778 164.015H128.864C129.05 164.015 129.05 163.725 128.864 163.725H127.778C127.592 163.725 127.592 164.015 127.778 164.015Z" fill="#646C42"/>
<path d="M132.116 164.171H133.511C133.698 164.171 133.698 163.881 133.511 163.881H132.116C131.929 163.881 131.929 164.171 132.116 164.171Z" fill="#646C42"/>
<path d="M137.231 164.171H138.627C138.813 164.171 138.813 163.881 138.627 163.881H137.231C137.045 163.881 137.045 164.171 137.231 164.171Z" fill="#646C42"/>
<path d="M141.448 164.144C141.654 164.093 141.861 164.039 142.067 163.987C142.248 163.94 142.171 163.66 141.99 163.706C141.784 163.758 141.577 163.812 141.371 163.864C141.19 163.91 141.267 164.191 141.448 164.144Z" fill="#646C42"/>
<path d="M144.359 163.862H145.135C145.322 163.862 145.322 163.571 145.135 163.571H144.359C144.173 163.571 144.173 163.862 144.359 163.862Z" fill="#646C42"/>
<path d="M147.5 164.175C147.737 164.117 147.964 164.164 148.166 164.296C148.324 164.398 148.468 164.148 148.312 164.046C148.047 163.871 147.731 163.823 147.421 163.896C147.24 163.94 147.317 164.219 147.498 164.177L147.5 164.175Z" fill="#646C42"/>
<path d="M150.868 164.947C151.247 164.993 151.593 165.191 151.824 165.495C151.936 165.642 152.188 165.497 152.074 165.349C151.774 164.955 151.36 164.716 150.868 164.656C150.683 164.633 150.685 164.924 150.868 164.947Z" fill="#646C42"/>
<path d="M153.398 166.762C153.554 166.918 153.708 167.071 153.864 167.227C153.997 167.36 154.203 167.154 154.07 167.021C153.914 166.866 153.76 166.712 153.604 166.556C153.471 166.423 153.266 166.629 153.398 166.762Z" fill="#646C42"/>
<path d="M154.632 169.669C154.767 169.927 154.805 170.208 154.744 170.493C154.705 170.676 154.984 170.753 155.025 170.57C155.104 170.208 155.055 169.85 154.882 169.523C154.796 169.358 154.545 169.504 154.632 169.669Z" fill="#646C42"/>
<path d="M155.061 172.702V173.322C155.061 173.509 155.352 173.509 155.352 173.322V172.702C155.352 172.516 155.061 172.516 155.061 172.702Z" fill="#646C42"/>
<path d="M154.29 176.578C154.23 177.146 154.172 177.714 154.112 178.281C154.093 178.468 154.384 178.466 154.403 178.281C154.463 177.714 154.52 177.146 154.58 176.578C154.599 176.391 154.309 176.393 154.29 176.578Z" fill="#646C42"/>
<path d="M154.132 181.072V182.931C154.132 183.117 154.422 183.117 154.422 182.931V181.072C154.422 180.885 154.132 180.885 154.132 181.072Z" fill="#646C42"/>
<path d="M154.657 185.906C154.732 186.425 154.809 186.947 154.884 187.469C154.911 187.653 155.19 187.574 155.165 187.392C155.09 186.872 155.013 186.35 154.938 185.829C154.911 185.644 154.632 185.723 154.657 185.906Z" fill="#646C42"/>
<path d="M155.552 191.059C155.708 191.421 155.862 191.783 156.018 192.145C156.091 192.316 156.341 192.168 156.268 191.999C156.112 191.637 155.958 191.275 155.802 190.913C155.729 190.742 155.479 190.89 155.552 191.059Z" fill="#646C42"/>
<path d="M156.61 195.638V196.257C156.61 196.444 156.901 196.444 156.901 196.257V195.638C156.901 195.451 156.61 195.451 156.61 195.638Z" fill="#646C42"/>
<path d="M157.705 200.403C157.646 200.82 157.698 201.213 157.865 201.602C157.94 201.773 158.19 201.625 158.115 201.455C157.983 201.147 157.936 200.813 157.984 200.482C158.011 200.299 157.73 200.22 157.703 200.405L157.705 200.403Z" fill="#646C42"/>
<path d="M158.005 204.935V205.4C158.005 205.587 158.296 205.587 158.296 205.4V204.935C158.296 204.748 158.005 204.748 158.005 204.935Z" fill="#646C42"/>
<path d="M158.625 209.274V210.824C158.625 211.01 158.916 211.01 158.916 210.824V209.274C158.916 209.088 158.625 209.088 158.625 209.274Z" fill="#646C42"/>
<path d="M159.128 214.576L159.281 215.352C159.318 215.534 159.597 215.457 159.562 215.275C159.511 215.017 159.46 214.759 159.409 214.499C159.372 214.316 159.093 214.393 159.128 214.576Z" fill="#646C42"/>
<path d="M159.401 218.417V218.573C159.401 218.76 159.691 218.76 159.691 218.573V218.417C159.691 218.231 159.401 218.231 159.401 218.417Z" fill="#646C42"/>
<path d="M110.426 79.3309C110.426 79.3309 105.095 80.091 102.029 81.5574C99.0177 82.9988 93.4446 88.8645 90.7003 97.9594C90.7003 97.9594 92.6652 105.153 104.133 107.772C109.86 109.081 112.539 95.4653 112.539 95.4653L110.424 79.3309H110.426Z" fill="#164D53"/>
<g opacity="0.5">
<path d="M109.443 139.854C109.443 139.854 125.211 146.759 135.661 141.813C135.661 141.813 136.718 140.32 135.661 139.854C134.605 139.389 122.723 143.867 109.443 139.854Z" fill="#9ACA3C"/>
</g>
<path d="M148.178 98.0189C146.765 100.763 145.83 103.698 145.399 106.756C145.377 106.902 145.603 106.966 145.624 106.817C146.053 103.779 146.975 100.865 148.38 98.1363C148.449 98.0035 148.247 97.8842 148.178 98.0189Z" fill="#9ACA3C"/>
<path d="M116.653 84.7944C118.518 88.0717 121.443 90.585 124.957 91.9475C125.098 92.0014 125.157 91.7762 125.019 91.7223C121.563 90.3829 118.689 87.8966 116.855 84.677C116.78 84.5461 116.58 84.6635 116.653 84.7944Z" fill="#9ACA3C"/>
<path d="M117.637 89.005C118.903 92.0187 120.566 94.8187 122.607 97.3724C122.702 97.4898 122.865 97.3243 122.773 97.2069C120.76 94.6879 119.113 91.9167 117.864 88.9434C117.806 88.8068 117.581 88.8664 117.639 89.005H117.637Z" fill="#9ACA3C"/>
<path d="M104.081 107.83L105.33 108.04C105.561 108.078 106.046 108.243 106.292 108.141C106.635 107.999 106.792 107.564 106.981 107.274C108.007 105.69 109.161 104.198 110.418 102.79C110.518 102.678 110.349 102.516 110.249 102.63C109.35 103.636 108.503 104.683 107.718 105.78C107.343 106.304 107.037 106.985 106.596 107.443C106.458 107.816 106.159 107.959 105.699 107.866C105.595 107.849 105.492 107.832 105.388 107.814C104.972 107.78 104.551 107.674 104.139 107.605C103.991 107.58 103.935 107.807 104.083 107.832L104.081 107.83Z" fill="#9ACA3C"/>
<g opacity="0.5">
<path d="M110.77 111.756C110.77 111.756 116.74 118.276 124.988 118.07C124.988 118.07 127.638 118.066 126.797 116.176C125.958 114.286 123.296 119.767 110.77 111.756Z" fill="#9ACA3C"/>
</g>
<path d="M100.342 120.6C98.9658 120.606 97.6034 120.783 96.2832 121.187C95.3248 121.482 94.1009 121.811 93.4678 122.636C93.3773 122.756 93.5717 122.883 93.664 122.763C94.3511 121.865 95.9464 121.493 96.9875 121.233C98.0825 120.958 99.2006 120.837 100.326 120.833C100.477 120.833 100.492 120.6 100.34 120.6H100.342Z" fill="#CF8171"/>
<path d="M134.414 124.59C133.679 123.156 123.764 122.992 121.89 123.312C119.844 123.66 112.006 126.982 112.006 126.982L114.279 132.611C114.279 132.611 115.168 136.35 124.798 133.125C125.279 132.963 127.161 135.901 127.892 135.484C128.302 135.251 126.818 132.447 126.204 130.979C126.129 130.798 126.318 130.617 126.485 130.707C128.391 131.741 130.965 135.178 132.016 134.516C132.237 134.375 131.092 132.162 130.411 130.752C130.046 129.995 128.929 129.01 127.971 128.258C127.896 128.198 127.961 128.075 128.052 128.106C129.089 128.456 130.278 129.141 130.9 129.639C131.968 130.498 134.485 133.053 135.95 132.611C136.56 132.426 133.492 129.079 132.418 127.588C132.245 127.347 131.962 127.105 131.614 126.872C131.549 126.828 131.599 126.722 131.674 126.747C132.338 126.968 132.892 127.18 133.094 127.322C134.974 128.658 137.158 130.677 138.594 129.936C138.967 129.743 134.712 125.175 134.412 124.588L134.414 124.59Z" fill="#FABBA5"/>
<path d="M232.039 228.353C231.969 227.991 232.2 227.651 232.379 227.327C232.558 227.006 232.685 226.573 232.445 226.294C232.316 226.142 232.112 226.08 231.919 226.026C231.067 225.786 230.216 225.545 229.364 225.305L228.89 225.151C228.224 225.717 227.441 226.142 226.606 226.398C226.773 227.014 226.873 227.649 226.904 228.288C226.483 228.434 226.061 228.58 225.64 228.726C225.507 228.773 225.357 228.836 225.316 228.971C225.293 229.05 225.316 229.132 225.336 229.211C225.559 230.045 225.782 230.876 226.007 231.709C226.055 231.886 226.109 232.075 226.244 232.198C226.342 232.287 226.471 232.333 226.598 232.375C226.95 232.494 227.301 232.614 227.653 232.733C227.864 232.804 228.115 232.872 228.294 232.741C228.596 232.523 228.509 231.894 228.879 231.854C229 231.84 229.111 231.909 229.213 231.977C229.62 232.242 230.099 232.516 230.561 232.373C230.734 232.319 230.884 232.212 231.028 232.102C231.902 231.434 232.672 230.628 233.297 229.723C233.032 229.15 232.158 228.979 232.039 228.357V228.353Z" fill="white"/>
<path d="M244.693 229.483C244.743 229.117 245.073 228.869 245.344 228.621C245.617 228.374 245.875 228.005 245.738 227.662C245.663 227.477 245.49 227.352 245.327 227.241C244.597 226.74 243.868 226.238 243.137 225.738L242.736 225.439C241.924 225.761 241.047 225.913 240.173 225.886C240.132 226.523 240.025 227.156 239.85 227.772L238.512 227.782C238.372 227.782 238.208 227.795 238.127 227.91C238.081 227.978 238.073 228.062 238.068 228.143C238.012 229.004 237.956 229.864 237.9 230.724C237.889 230.907 237.879 231.101 237.968 231.263C238.031 231.378 238.141 231.463 238.245 231.544C238.539 231.769 238.834 231.994 239.128 232.221C239.305 232.356 239.521 232.5 239.734 232.435C240.09 232.325 240.209 231.702 240.573 231.782C240.693 231.809 240.777 231.911 240.852 232.008C241.151 232.389 241.516 232.802 242.001 232.816C242.182 232.82 242.359 232.766 242.53 232.708C243.573 232.356 244.559 231.84 245.444 231.184C245.377 230.555 244.603 230.112 244.691 229.487L244.693 229.483Z" fill="white"/>
<path d="M240.096 225.509C240.146 225.143 240.475 224.895 240.747 224.647C241.02 224.4 241.278 224.031 241.141 223.688C241.066 223.504 240.893 223.378 240.729 223.267C240 222.765 239.27 222.264 238.539 221.762L238.139 221.464C237.327 221.785 236.449 221.937 235.576 221.91C235.535 222.547 235.427 223.182 235.252 223.796C234.806 223.8 234.361 223.802 233.915 223.806C233.774 223.806 233.611 223.819 233.53 223.935C233.484 224.002 233.476 224.087 233.47 224.167C233.414 225.028 233.359 225.888 233.303 226.748C233.291 226.931 233.282 227.125 233.37 227.287C233.434 227.402 233.543 227.487 233.647 227.568C233.942 227.793 234.236 228.018 234.531 228.245C234.708 228.38 234.923 228.524 235.137 228.459C235.493 228.349 235.612 227.726 235.976 227.807C236.095 227.834 236.18 227.936 236.255 228.032C236.553 228.413 236.919 228.827 237.404 228.84C237.585 228.844 237.762 228.79 237.933 228.732C238.976 228.38 239.961 227.864 240.847 227.208C240.779 226.579 240.006 226.136 240.094 225.511L240.096 225.509Z" fill="white"/>
<g opacity="0.7">
<path d="M248.271 233.407H224.841C224.373 233.407 223.975 233.058 223.913 232.595L218.6 192.029H253.3L253.226 192.755L249.316 232.46C249.264 232.999 248.814 233.407 248.271 233.407ZM218.923 192.312L218.977 192.722L224.194 232.558C224.237 232.879 224.514 233.122 224.839 233.122H248.269C248.666 233.122 248.993 232.826 249.031 232.431L252.984 192.312H218.921H218.923Z" fill="#D3E19B"/>
<path d="M253.209 192.741H218.683C218.396 192.741 218.163 192.509 218.163 192.222C218.163 191.935 218.396 191.702 218.683 191.702H253.209C253.496 191.702 253.729 191.935 253.729 192.222C253.729 192.509 253.496 192.741 253.209 192.741Z" fill="#D3E19B"/>
<path d="M231.465 192.201L231.182 192.215L233.171 233.172L233.454 233.159L231.465 192.201Z" fill="#D3E19B"/>
<path d="M226.987 192.231L226.706 192.256L230.332 233.213L230.614 233.188L226.987 192.231Z" fill="#D3E19B"/>
<path d="M222.411 192.221L222.13 192.255L227.087 233.212L227.367 233.178L222.411 192.221Z" fill="#D3E19B"/>
<path d="M245.908 192.185L242.735 233.143L243.017 233.165L246.19 192.207L245.908 192.185Z" fill="#D3E19B"/>
<path d="M249.815 192.109L245.934 233.163L246.216 233.19L250.096 192.136L249.815 192.109Z" fill="#D3E19B"/>
<path d="M241.516 191.972L239.873 233.254L240.155 233.265L241.799 191.984L241.516 191.972Z" fill="#D3E19B"/>
<path d="M236.601 192.741H236.318V233.18H236.601V192.741Z" fill="#D3E19B"/>
</g>
<path d="M217.49 233.308C217.265 233.308 217.068 233.141 217.039 232.912L204.989 136.513C204.958 136.265 205.135 136.038 205.383 136.007C205.631 135.976 205.858 136.153 205.889 136.402L217.94 232.8C217.971 233.049 217.796 233.276 217.546 233.307C217.526 233.308 217.507 233.31 217.488 233.31L217.49 233.308Z" fill="#122A2D"/>
<path d="M64.7572 233.376C64.738 233.376 64.7187 233.376 64.7014 233.372C64.4531 233.341 64.2761 233.114 64.3069 232.866L76.3577 136.398C76.3885 136.15 76.6156 135.975 76.8638 136.003C77.1121 136.034 77.2891 136.261 77.2583 136.51L65.2075 232.978C65.1787 233.207 64.9843 233.376 64.7572 233.376Z" fill="#122A2D"/>
<path d="M211.33 136.456H74.7681C73.8732 136.456 73.1477 135.73 73.1477 134.835C73.1477 133.94 73.8732 133.215 74.7681 133.215H211.33C212.224 133.215 212.95 133.94 212.95 134.835C212.95 135.73 212.224 136.456 211.33 136.456Z" fill="#122A2D"/>
<path d="M216.323 136.456H107.776C106.881 136.456 106.155 135.73 106.155 134.835C106.155 133.94 106.881 133.215 107.776 133.215H216.323C217.218 133.215 217.944 133.94 217.944 134.835C217.944 135.73 217.218 136.456 216.323 136.456Z" fill="#9FAF5E"/>
<path d="M105.865 233.407C105.846 233.407 105.827 233.407 105.809 233.403C105.561 233.372 105.384 233.145 105.415 232.897L117.466 136.398C117.496 136.15 117.723 135.971 117.972 136.003C118.22 136.034 118.397 136.261 118.366 136.509L106.315 233.008C106.287 233.237 106.092 233.407 105.865 233.407Z" fill="#122A2D"/>
<path d="M61.8242 199.641C61.8242 199.641 73.2073 191.602 71.4887 183.165C69.7722 174.729 64.8899 176.37 65.1247 170.089C65.3575 163.808 59.5688 161.133 55.3235 161.188C51.0782 161.244 46.1979 152.357 40.9384 154.503C35.6789 156.647 43.4113 162.809 41.7505 166.508C40.0897 170.206 40.3938 174.71 45.6032 177.952C50.8107 181.197 40.5092 192.089 61.8223 199.641H61.8242Z" fill="#005F60"/>
<path d="M40.7805 154.799C43.2553 156.639 45.4838 158.817 47.5237 161.127C50.3238 164.296 52.7697 167.78 54.7961 171.492C56.9092 175.36 58.5584 179.472 59.6207 183.752C60.6099 187.742 61.2314 191.835 61.5413 195.934C61.8203 199.627 61.9127 203.447 61.218 207.103C61.1448 207.486 61.0602 207.865 60.9639 208.243C60.9312 208.37 61.1237 208.437 61.1564 208.308C62.0474 204.846 62.032 201.142 61.8492 197.595C61.6336 193.417 61.0698 189.241 60.1595 185.157C59.2108 180.9 57.7444 176.801 55.7718 172.908C53.8128 169.042 51.3995 165.403 48.6129 162.081C46.5134 159.578 44.1983 157.222 41.6311 155.196C41.3886 155.003 41.1423 154.817 40.894 154.632C40.7882 154.553 40.6747 154.722 40.7786 154.801L40.7805 154.799Z" fill="#288B54"/>
<path d="M70.3014 179.857C69.014 184.786 64.9015 188.107 61.0795 191.123C61.0488 191.148 61.0892 191.196 61.12 191.171C64.9496 188.15 69.0698 184.817 70.3611 179.878C70.3707 179.84 70.3111 179.819 70.3014 179.859V179.857Z" fill="#288B54"/>
<path d="M60.2847 186.177C57.9099 186.114 55.5891 185.4 53.4318 184.437C51.2399 183.458 49.173 182.197 47.2678 180.742C47.2351 180.717 47.2005 180.769 47.2332 180.794C49.1442 182.253 51.2168 183.516 53.4125 184.497C55.5737 185.461 57.9003 186.177 60.2808 186.241C60.3213 186.241 60.3251 186.179 60.2847 186.179V186.177Z" fill="#288B54"/>
<path d="M56.7592 161.221C57.1557 164.673 56.3108 168.211 54.7867 171.303C54.7694 171.34 54.829 171.359 54.8463 171.322C56.3743 168.218 57.2192 164.672 56.8208 161.208C56.817 161.167 56.7554 161.179 56.7592 161.219V161.221Z" fill="#288B54"/>
<path d="M58.8877 161.812C58.9916 163.861 58.8203 165.921 58.3662 167.924C57.9236 169.877 57.2885 171.863 55.8644 173.335C55.8375 173.364 55.8779 173.412 55.9048 173.384C57.3097 171.931 57.9486 169.995 58.397 168.068C58.8742 166.021 59.0551 163.915 58.9493 161.818C58.9474 161.777 58.8839 161.773 58.8877 161.814V161.812Z" fill="#288B54"/>
<path d="M58.0795 178.524C52.922 178.077 47.9319 175.878 44.0253 172.496C42.9034 171.526 41.8758 170.453 40.9559 169.288C40.9309 169.258 40.8827 169.298 40.9078 169.329C44.1466 173.434 48.7825 176.415 53.8092 177.812C55.2044 178.2 56.6323 178.46 58.0756 178.585C58.116 178.589 58.1199 178.526 58.0795 178.524Z" fill="#288B54"/>
<path d="M57.1903 176.48C52.3562 175.77 47.8568 173.347 44.2658 170.083C43.2728 169.181 42.3472 168.203 41.4966 167.164C41.4716 167.133 41.4235 167.173 41.4485 167.204C44.5353 170.98 48.6709 173.995 53.2934 175.591C54.5596 176.028 55.8605 176.349 57.1846 176.543C57.225 176.549 57.2288 176.488 57.1884 176.482L57.1903 176.48Z" fill="#288B54"/>
<path d="M50.3585 158.671C50.5221 160.193 50.0583 161.793 49.3174 163.113C49.2981 163.147 49.3501 163.184 49.3693 163.147C50.1199 161.812 50.5856 160.197 50.4201 158.658C50.4162 158.617 50.3546 158.629 50.3585 158.669V158.671Z" fill="#288B54"/>
<path d="M46.1729 159.456C43.9925 160.082 41.6254 159.824 39.6336 158.738C39.599 158.719 39.5624 158.771 39.599 158.79C41.6062 159.884 43.9886 160.149 46.1863 159.518C46.2248 159.506 46.2133 159.445 46.1748 159.456H46.1729Z" fill="#288B54"/>
<path d="M65.9907 173.986C65.0188 175.581 64.1451 177.23 63.2079 178.845C62.3073 180.396 61.1546 181.851 59.5323 182.684C59.4957 182.704 59.5227 182.759 59.5592 182.74C61.1142 181.941 62.2496 180.575 63.1329 179.097C64.1336 177.423 65.0285 175.687 66.0426 174.02C66.0638 173.986 66.0118 173.951 65.9907 173.986Z" fill="#288B54"/>
<path d="M47.9087 188.332C50.7107 191.254 54.5211 193.144 58.2949 194.477C59.3803 194.86 60.481 195.195 61.5934 195.482C61.6319 195.491 61.653 195.432 61.6126 195.422C59.1243 194.779 56.6899 193.906 54.3825 192.774C52.0347 191.623 49.7735 190.188 47.9549 188.292C47.928 188.263 47.8799 188.304 47.9068 188.332H47.9087Z" fill="#288B54"/>
<path d="M40.6902 178.193C39.7876 177.223 39.3296 177.23 38.9024 177.579C38.4752 177.927 38.2962 178.495 38.8023 179.236C40.0282 181.027 42.2952 182.332 42.5838 182.099C42.7936 181.93 41.9468 179.544 40.6902 178.193Z" fill="#005F60"/>
<path d="M42.807 182.305C41.2501 181.037 40.4207 179.09 38.8138 177.873C38.7984 177.862 38.8195 177.841 38.8349 177.852C40.4418 179.068 41.2713 181.016 42.8281 182.284C42.8435 182.296 42.8224 182.319 42.807 182.305Z" fill="#288B54"/>
<path d="M40.6402 179.865C40.9212 179.567 41.104 179.12 41.1001 178.709C41.1001 178.689 41.129 178.687 41.1309 178.709C41.1348 179.128 40.95 179.582 40.6633 179.888C40.6498 179.902 40.6287 179.882 40.6421 179.867L40.6402 179.865Z" fill="#288B54"/>
<path d="M40.1032 179.157C39.6471 179.265 39.1564 179.218 38.7118 179.086C38.6926 179.08 38.7003 179.051 38.7195 179.057C39.1602 179.19 39.6452 179.238 40.0955 179.13C40.1147 179.126 40.1224 179.155 40.1032 179.159V179.157Z" fill="#288B54"/>
<path d="M40.9135 178.464C40.8615 178.895 40.7249 179.29 40.4997 179.659C40.4901 179.677 40.4632 179.661 40.4728 179.646C40.696 179.28 40.8327 178.884 40.8846 178.458C40.8866 178.439 40.9154 178.447 40.9135 178.466V178.464Z" fill="#288B54"/>
<path d="M68.2288 204.717C68.2288 204.717 61.0815 197.618 63.3196 191.81C65.5577 186.002 68.8408 187.759 69.4297 183.252C70.0185 178.745 74.4659 177.535 77.4873 178.085C80.5067 178.635 85.0541 172.887 88.547 175.048C92.0398 177.209 85.7854 180.671 86.5244 183.51C87.2634 186.347 86.5051 189.52 82.4023 191.206C78.2994 192.892 84.3344 201.898 68.2307 204.717H68.2288Z" fill="#005F60"/>
<path d="M88.6221 175.277C86.6361 176.291 84.7848 177.577 83.0547 178.976C80.678 180.899 78.515 183.089 76.6233 185.49C74.6526 187.994 72.9803 190.727 71.7102 193.652C70.5247 196.377 69.5895 199.221 68.8774 202.106C68.2347 204.706 67.7093 207.417 67.7651 210.108C67.7709 210.388 67.7863 210.669 67.8094 210.95C67.8171 211.045 67.6708 211.07 67.6631 210.974C67.4437 208.399 67.9017 205.758 68.4579 203.253C69.1141 200.299 70.0167 197.391 71.1579 194.589C72.3452 191.668 73.8848 188.921 75.7592 186.383C77.622 183.862 79.7793 181.557 82.1637 179.524C83.9611 177.993 85.8952 176.592 87.9697 175.454C88.166 175.347 88.3642 175.243 88.5624 175.141C88.6471 175.098 88.7087 175.231 88.624 175.275L88.6221 175.277Z" fill="#288B54"/>
<path d="M64.5647 189.593C64.8899 193.261 67.4225 196.123 69.7837 198.732C69.803 198.753 69.7683 198.782 69.7491 198.761C67.3821 196.146 64.8456 193.274 64.5185 189.599C64.5166 189.57 64.5608 189.562 64.5628 189.591L64.5647 189.593Z" fill="#288B54"/>
<path d="M70.9461 195.305C72.6473 195.545 74.387 195.315 76.0401 194.887C77.7201 194.452 79.3462 193.802 80.88 192.994C80.905 192.98 80.9243 193.021 80.8993 193.034C79.3616 193.844 77.7316 194.497 76.0478 194.932C74.3908 195.361 72.6473 195.59 70.9422 195.349C70.9134 195.345 70.9172 195.299 70.9461 195.305Z" fill="#288B54"/>
<path d="M76.4597 177.937C75.7611 180.35 75.9381 182.973 76.654 185.361C76.6617 185.388 76.6175 185.396 76.6098 185.369C75.8939 182.973 75.7188 180.342 76.4193 177.921C76.427 177.893 76.4693 177.91 76.4616 177.937H76.4597Z" fill="#288B54"/>
<path d="M74.8701 178.1C74.5506 179.55 74.4236 181.037 74.5063 182.521C74.5872 183.966 74.8008 185.459 75.6398 186.68C75.6572 186.703 75.6225 186.733 75.6052 186.708C74.7777 185.504 74.5564 184.047 74.4679 182.619C74.3736 181.103 74.4967 179.578 74.8258 178.097C74.8316 178.068 74.8778 178.073 74.8701 178.1Z" fill="#288B54"/>
<path d="M73.4363 190.113C77.1677 190.415 80.9897 189.447 84.1804 187.507C85.0964 186.951 85.9586 186.308 86.7533 185.588C86.7745 185.569 86.8034 185.604 86.7822 185.623C83.9802 188.159 80.3161 189.728 76.5635 190.12C75.5224 190.23 74.4735 190.244 73.4286 190.159C73.3997 190.157 73.4036 190.111 73.4324 190.115L73.4363 190.113Z" fill="#288B54"/>
<path d="M74.3158 188.762C77.8472 188.837 81.3458 187.651 84.2998 185.756C85.1177 185.23 85.8932 184.645 86.6245 184.006C86.6457 183.987 86.6765 184.022 86.6534 184.041C83.9996 186.362 80.6876 188.015 77.2006 188.596C76.2461 188.756 75.28 188.827 74.312 188.808C74.2831 188.808 74.287 188.762 74.3158 188.764V188.762Z" fill="#288B54"/>
<path d="M81.3284 176.888C81.0282 177.952 81.1667 179.149 81.5362 180.181C81.5459 180.208 81.5054 180.227 81.4958 180.2C81.1225 179.157 80.9839 177.95 81.2861 176.873C81.2938 176.844 81.3361 176.861 81.3284 176.888Z" fill="#288B54"/>
<path d="M84.2169 177.95C85.6968 178.658 87.4134 178.758 88.9664 178.225C88.9934 178.216 89.0126 178.256 88.9857 178.266C87.423 178.805 85.693 178.707 84.2015 177.993C84.1746 177.981 84.1919 177.937 84.2169 177.95Z" fill="#288B54"/>
<path d="M68.3424 185.927C68.8427 187.18 69.268 188.463 69.7414 189.726C70.1975 190.94 70.8441 192.116 71.9006 192.905C71.9237 192.922 71.8987 192.959 71.8737 192.942C70.8614 192.185 70.2167 191.075 69.7645 189.914C69.2526 188.6 68.8235 187.255 68.3 185.944C68.2885 185.917 68.3308 185.898 68.3404 185.925L68.3424 185.927Z" fill="#288B54"/>
<path d="M79.5099 198.328C77.1621 200.074 74.2177 200.963 71.3657 201.459C70.5459 201.602 69.7203 201.707 68.8928 201.779C68.8639 201.781 68.8562 201.736 68.8851 201.734C70.7364 201.575 72.578 201.246 74.3581 200.716C76.171 200.178 77.9549 199.427 79.4791 198.294C79.5022 198.276 79.531 198.311 79.5079 198.328H79.5099Z" fill="#288B54"/>
<path d="M55.3833 199.358C55.3833 199.358 58.5125 193.756 56.1204 190.594C53.7283 187.432 52.029 189.083 50.8763 186.429C49.7236 183.774 46.7888 183.814 45.0357 184.682C43.2844 185.55 39.4894 182.829 37.7324 184.765C35.9754 186.701 40.4112 187.722 40.4574 189.589C40.5036 191.456 41.5255 193.265 44.3332 193.577C47.141 193.888 45.0299 200.46 55.3814 199.358H55.3833Z" fill="#005F60"/>
<path d="M37.7285 184.921C39.1218 185.192 40.4804 185.654 41.7871 186.208C43.5807 186.968 45.2896 187.928 46.8676 189.066C48.515 190.253 50.0179 191.631 51.3092 193.198C52.5139 194.658 53.5858 196.234 54.5288 197.874C55.3794 199.352 56.178 200.92 56.6149 202.575C56.6611 202.748 56.7015 202.924 56.7361 203.099C56.7477 203.158 56.842 203.147 56.8304 203.087C56.5129 201.473 55.7681 199.937 54.9887 198.501C54.0689 196.808 53.0047 195.187 51.8134 193.671C50.5722 192.091 49.15 190.68 47.5566 189.456C45.9747 188.24 44.2485 187.209 42.4318 186.383C41.0616 185.762 39.6318 185.242 38.1634 184.913C38.0249 184.882 37.8844 184.853 37.7458 184.824C37.6862 184.813 37.6727 184.905 37.7324 184.917L37.7285 184.921Z" fill="#288B54"/>
<path d="M54.9713 189.456C55.4158 191.76 54.3689 193.956 53.3817 195.969C53.374 195.986 53.399 195.998 53.4086 195.98C54.3978 193.963 55.4466 191.76 55.0001 189.453C54.9963 189.435 54.9674 189.437 54.9713 189.456Z" fill="#288B54"/>
<path d="M52.0673 194.073C51.0685 194.52 49.962 194.683 48.8766 194.712C47.772 194.741 46.6635 194.629 45.582 194.402C45.5646 194.398 45.5589 194.427 45.5781 194.431C46.6616 194.658 47.7739 194.77 48.8804 194.741C49.9697 194.712 51.0781 194.547 52.0789 194.1C52.0962 194.092 52.0846 194.065 52.0673 194.073Z" fill="#288B54"/>
<path d="M45.6416 184.411C46.4922 185.765 46.8444 187.401 46.827 188.991C46.827 189.01 46.8559 189.006 46.8559 188.987C46.8732 187.393 46.5191 185.754 45.6647 184.393C45.6551 184.378 45.632 184.393 45.6416 184.411Z" fill="#288B54"/>
<path d="M46.6423 184.232C47.0927 185.063 47.4314 185.952 47.6411 186.874C47.8451 187.772 47.9779 188.725 47.6777 189.618C47.6719 189.635 47.6988 189.647 47.7046 189.63C47.9991 188.746 47.8797 187.817 47.6815 186.926C47.4718 185.981 47.1292 185.071 46.6674 184.22C46.6577 184.205 46.6308 184.214 46.6404 184.232H46.6423Z" fill="#288B54"/>
<path d="M49.6311 191.333C47.4007 192.172 44.8912 192.251 42.5954 191.625C41.9372 191.444 41.2964 191.204 40.6825 190.904C40.6651 190.896 40.6536 190.921 40.6709 190.931C42.8321 191.991 45.3492 192.307 47.7163 191.889C48.3725 191.773 49.0172 191.596 49.6407 191.362C49.658 191.356 49.6484 191.329 49.6292 191.335L49.6311 191.333Z" fill="#288B54"/>
<path d="M48.8536 190.661C46.7059 191.327 44.3543 191.215 42.2143 190.574C41.6216 190.397 41.0442 190.174 40.4842 189.912C40.4669 189.905 40.4554 189.932 40.4727 189.939C42.5049 190.894 44.8219 191.323 47.06 191.067C47.672 190.996 48.2762 190.871 48.8651 190.688C48.8824 190.682 48.8728 190.655 48.8536 190.661Z" fill="#288B54"/>
<path d="M42.4759 184.624C42.8473 185.223 42.9724 185.981 42.9262 186.676C42.9262 186.695 42.9532 186.699 42.9551 186.679C43.0013 185.975 42.8743 185.213 42.499 184.607C42.4894 184.591 42.4663 184.607 42.4759 184.624Z" fill="#288B54"/>
<path d="M40.8942 185.783C40.1129 186.475 39.0794 186.839 38.0364 186.785C38.0172 186.785 38.0133 186.812 38.0326 186.814C39.0833 186.868 40.1244 186.506 40.9134 185.806C40.9269 185.794 40.9096 185.771 40.8961 185.783H40.8942Z" fill="#288B54"/>
<path d="M52.0134 187.876C51.9268 188.733 51.8921 189.591 51.8248 190.448C51.7593 191.271 51.5707 192.104 51.0608 192.772C51.0492 192.788 51.0723 192.805 51.0839 192.79C51.5707 192.149 51.7709 191.356 51.844 190.565C51.9268 189.67 51.9518 188.771 52.0422 187.878C52.0422 187.859 52.0153 187.855 52.0134 187.875V187.876Z" fill="#288B54"/>
<path d="M47.3563 197.429C49.0999 198.086 51.059 198.112 52.891 197.916C53.4183 197.86 53.9418 197.78 54.4614 197.678C54.4787 197.674 54.4767 197.645 54.4575 197.649C53.2971 197.876 52.1116 197.997 50.9281 197.987C49.7234 197.976 48.4995 197.83 47.3679 197.404C47.3506 197.398 47.339 197.424 47.3563 197.431V197.429Z" fill="#288B54"/>
<path d="M52.1058 233.407H67.1414C70.2744 233.407 72.9301 230.801 73.365 227.298L76.2498 204.042H43.6691L46.7944 228.222C47.1793 231.199 49.4405 233.407 52.1058 233.407Z" fill="#B2D235"/>
<path d="M44.0522 205.983H76.4423C77.2214 205.983 77.8529 205.352 77.8529 204.573V203.684C77.8529 202.905 77.2214 202.273 76.4423 202.273H44.0522C43.2731 202.273 42.6416 202.905 42.6416 203.684V204.573C42.6416 205.352 43.2731 205.983 44.0522 205.983Z" fill="#B2D235"/>
<g opacity="0.5">
<path d="M75.1992 205.983C75.1992 205.983 71.0386 207.581 60.2463 207.717C49.4541 207.854 45.5341 205.983 45.5341 205.983H75.1992Z" fill="#005F60"/>
</g>
<path d="M183.245 133.215H138.96L142.959 105.332C143.103 104.322 143.969 103.573 144.987 103.573H185.556C186.58 103.573 187.367 104.481 187.221 105.494L183.245 133.215Z" fill="#122A2D"/>
<path d="M143.823 133.215H123.837C123.837 132.153 124.699 131.29 125.762 131.29H143.823V133.215Z" fill="#122A2D"/>
<path d="M163.644 122.132C163.105 122.132 162.628 121.903 162.299 121.489C161.845 120.916 161.708 120.058 161.924 119.134C162.303 117.519 163.665 116.205 164.962 116.205C165.501 116.205 165.979 116.434 166.308 116.848C166.762 117.421 166.898 118.281 166.683 119.203C166.304 120.818 164.941 122.132 163.644 122.132ZM164.962 116.509C163.798 116.509 162.568 117.717 162.22 119.203C162.026 120.034 162.141 120.8 162.538 121.301C162.811 121.645 163.194 121.828 163.644 121.828C164.809 121.828 166.038 120.619 166.387 119.134C166.581 118.301 166.465 117.537 166.069 117.036C165.796 116.692 165.413 116.509 164.962 116.509Z" fill="white"/>
<path d="M154.097 133.215C154.097 133.215 179.313 133.673 185.86 114.991L183.246 133.215H154.097Z" fill="#16393E"/>
<path d="M147.213 22.1098H99.2835C97.5649 22.1098 96.1659 20.7107 96.1659 18.9922V3.11758C96.1659 1.39906 97.5649 0 99.2835 0H147.213C148.932 0 150.331 1.39906 150.331 3.11758V18.9922C150.331 20.7107 148.932 22.1098 147.213 22.1098ZM99.2835 0.808258C98.0095 0.808258 96.9741 1.8436 96.9741 3.11758V18.9922C96.9741 20.2662 98.0095 21.3015 99.2835 21.3015H147.213C148.487 21.3015 149.523 20.2662 149.523 18.9922V3.11758C149.523 1.8436 148.487 0.808258 147.213 0.808258H99.2835Z" fill="#164D53"/>
<path d="M93.9797 6.545H95.0131V15.5687H93.8219C93.1195 15.5687 92.5499 14.999 92.5499 14.2966V7.97677C92.5499 7.18775 93.1907 6.54692 93.9797 6.54692V6.545Z" fill="#164D53"/>
<path d="M152.436 15.5667H151.403V6.54305H152.594C153.296 6.54305 153.866 7.11268 153.866 7.8151V14.1349C153.866 14.924 153.225 15.5648 152.436 15.5648V15.5667Z" fill="#164D53"/>
<path d="M104.189 1.71078H100.604C99.2144 1.71078 98.0883 2.83689 98.0883 4.22602V17.8837C98.0883 19.2728 99.2144 20.399 100.604 20.399H104.189C105.578 20.399 106.704 19.2728 106.704 17.8837V4.22602C106.704 2.83689 105.578 1.71078 104.189 1.71078Z" fill="#9ACA3C"/>
<path d="M114.54 1.71078H110.955C109.566 1.71078 108.44 2.83689 108.44 4.22602V17.8837C108.44 19.2728 109.566 20.399 110.955 20.399H114.54C115.93 20.399 117.056 19.2728 117.056 17.8837V4.22602C117.056 2.83689 115.93 1.71078 114.54 1.71078Z" fill="#9ACA3C"/>
<path d="M124.892 1.71078H121.307C119.918 1.71078 118.791 2.83689 118.791 4.22602V17.8837C118.791 19.2728 119.918 20.399 121.307 20.399H124.892C126.281 20.399 127.407 19.2728 127.407 17.8837V4.22602C127.407 2.83689 126.281 1.71078 124.892 1.71078Z" fill="#9ACA3C"/>
<path d="M135.243 1.71078H131.658C130.269 1.71078 129.143 2.83689 129.143 4.22602V17.8837C129.143 19.2728 130.269 20.399 131.658 20.399H135.243C136.633 20.399 137.759 19.2728 137.759 17.8837V4.22602C137.759 2.83689 136.633 1.71078 135.243 1.71078Z" fill="#9ACA3C"/>
<path d="M145.593 1.71078H142.008C140.619 1.71078 139.493 2.83689 139.493 4.22602V17.8837C139.493 19.2728 140.619 20.399 142.008 20.399H145.593C146.982 20.399 148.108 19.2728 148.108 17.8837V4.22602C148.108 2.83689 146.982 1.71078 145.593 1.71078Z" fill="#9ACA3C"/>
</svg>
