<svg width="147" height="77" viewBox="0 0 147 77" fill="none" xmlns="http://www.w3.org/2000/svg">
<path d="M31.9413 17.001C31.2434 17.001 30.6766 16.4342 30.6766 15.7363C30.6766 8.45298 24.753 2.52934 17.4696 2.52934C16.7718 2.52934 16.205 1.96253 16.205 1.26467C16.205 0.566808 16.7718 0 17.4696 0C26.1454 0 33.2059 7.06053 33.2059 15.7363C33.2059 16.4342 32.6391 17.001 31.9413 17.001Z" fill="#D3E173"/>
<path d="M27.4231 17.9607C26.7252 17.9607 26.1584 17.3939 26.1584 16.696C26.1584 11.3752 21.8304 7.05046 16.5128 7.05046C15.815 7.05046 15.2482 6.48365 15.2482 5.78579C15.2482 5.08793 15.815 4.52112 16.5128 4.52112C23.2261 4.52112 28.6878 9.98279 28.6878 16.696C28.6878 17.3939 28.1209 17.9607 27.4231 17.9607Z" fill="url(#paint0_radial_25_7418)"/>
<path d="M22.9802 18.8389C22.2824 18.8389 21.7155 18.2721 21.7155 17.5742C21.7155 14.2192 18.9864 11.49 15.6314 11.49C14.9335 11.49 14.3667 10.9232 14.3667 10.2254C14.3667 9.5275 14.9335 8.96069 15.6314 8.96069C20.3821 8.96069 24.2449 12.8235 24.2449 17.5742C24.2449 18.2721 23.6781 18.8389 22.9802 18.8389Z" fill="url(#paint1_radial_25_7418)"/>
<path d="M20.9326 22.2231C20.9326 17.1808 16.847 13.0952 11.8047 13.0952C6.76236 13.0952 2.67676 17.1808 2.67676 22.2231C2.67676 25.5191 4.42305 28.4056 7.04413 30.011V21.8791C7.04413 19.2482 9.17703 17.1186 11.8047 17.1186C14.4356 17.1186 16.5652 19.2515 16.5652 21.8791V30.011C19.183 28.4056 20.9326 25.5191 20.9326 22.2231Z" fill="url(#paint2_radial_25_7418)"/>
<path d="M41.3837 39.9646C41.3837 38.2728 40.0122 36.9012 38.3203 36.9012C36.6285 36.9012 35.257 38.2728 35.257 39.9646V62.768C35.257 64.4599 36.6285 65.8314 38.3203 65.8314C40.0122 65.8314 41.3837 64.4599 41.3837 62.768V39.9646Z" fill="url(#paint3_radial_25_7418)"/>
<path d="M32.5703 43.985C32.5703 42.2932 31.1987 40.9216 29.5069 40.9216C27.815 40.9216 26.4435 42.2932 26.4435 43.985V56.4319C26.4435 58.1237 27.815 59.4953 29.5069 59.4953C31.1987 59.4953 32.5703 58.1237 32.5703 56.4319V43.985Z" fill="url(#paint4_radial_25_7418)"/>
<path d="M23.7568 37.6289C23.7568 35.9371 22.3853 34.5656 20.6934 34.5656C19.0015 34.5656 17.63 35.9371 17.63 37.6289V61.1073C17.63 62.7991 19.0015 64.1706 20.6934 64.1706C22.3853 64.1706 23.7568 62.7991 23.7568 61.1073V37.6289Z" fill="url(#paint5_radial_25_7418)"/>
<path d="M14.9434 22.1608C14.9434 20.4689 13.5719 19.0974 11.88 19.0974C10.1882 19.0974 8.81665 20.4689 8.81665 22.1608V55.0816C8.81665 56.7734 10.1882 58.1449 11.88 58.1449C13.5719 58.1449 14.9434 56.7734 14.9434 55.0816V22.1608Z" fill="url(#paint6_radial_25_7418)"/>
<path d="M6.12677 50.4494C6.12677 48.7576 4.75525 47.386 3.06339 47.386C1.37153 47.386 0 48.7576 0 50.4494V73.2004C0 74.8923 1.37153 76.2638 3.06339 76.2638C4.75525 76.2638 6.12677 74.8923 6.12677 73.2004V50.4494Z" fill="url(#paint7_radial_25_7418)"/>
<path d="M145.565 34.0409C146.358 34.0409 147 33.3987 147 32.6058C147 31.813 146.358 31.1708 145.565 31.1708H143.609C143.095 31.1708 142.672 30.7514 142.672 30.2338C142.672 29.7161 143.091 29.2967 143.609 29.2967H145.565C146.358 29.2967 147 28.6546 147 27.8617C147 27.0688 146.358 26.4266 145.565 26.4266H143.609C141.509 26.4266 139.802 28.1336 139.802 30.2338C139.802 30.5581 139.848 30.8694 139.923 31.1708H139.281C138.488 31.1708 137.846 31.813 137.846 32.6058C137.846 33.3987 138.488 34.0409 139.281 34.0409H145.565Z" fill="url(#paint8_radial_25_7418)"/>
<path d="M129.317 35.7577H117.86C116.52 35.7577 115.432 36.8455 115.432 38.1855C115.432 39.5255 116.52 40.6133 117.86 40.6133H129.317C131.604 40.6133 133.465 42.4742 133.465 44.7644C133.465 47.0546 131.604 48.9155 129.317 48.9155H108.483V37.7989C108.483 36.4588 107.395 35.3711 106.055 35.3711C104.715 35.3711 103.628 36.4588 103.628 37.7989V51.3433C103.628 53.6302 101.767 55.4944 99.4765 55.4944C98.1365 55.4944 97.0487 56.5822 97.0487 57.9222C97.0487 59.2622 98.1365 60.35 99.4765 60.35C103.601 60.35 107.078 57.5618 108.142 53.7711H129.321C134.288 53.7711 138.327 49.7313 138.327 44.7644C138.327 39.7974 134.288 35.7577 129.321 35.7577H129.317Z" fill="url(#paint9_radial_25_7418)"/>
<path d="M143.596 35.3711C142.256 35.3711 141.168 36.4588 141.168 37.7989V51.3433C141.168 52.6833 142.256 53.7711 143.596 53.7711C144.936 53.7711 146.024 52.6833 146.024 51.3433V37.7989C146.024 36.4588 144.936 35.3711 143.596 35.3711Z" fill="url(#paint10_radial_25_7418)"/>
<path d="M99.3028 50.3019V31.5382C99.3028 30.1982 98.2151 29.1105 96.875 29.1105C95.535 29.1105 94.4473 30.1982 94.4473 31.5382V50.3019C94.4473 51.6419 95.535 52.7297 96.875 52.7297C98.2151 52.7297 99.3028 51.6419 99.3028 50.3019Z" fill="url(#paint11_radial_25_7418)"/>
<path d="M124.115 56.265C122.922 56.265 121.956 57.2315 121.956 58.4241C121.956 59.6167 122.922 60.5832 124.115 60.5832C125.307 60.5832 126.274 59.6167 126.274 58.4241C126.274 57.2315 125.307 56.265 124.115 56.265Z" fill="url(#paint12_radial_25_7418)"/>
<path d="M88.6285 35.3707C87.2885 35.3707 86.2008 36.4584 86.2008 37.7985V46.1237C86.2008 47.8372 84.8083 49.2296 83.0948 49.2296C81.3813 49.2296 79.9888 47.8372 79.9888 46.1237V37.7985C79.9888 36.4584 78.9011 35.3707 77.561 35.3707C76.221 35.3707 75.1333 36.4584 75.1333 37.7985V46.1237C75.1333 47.8372 73.7408 49.2296 72.0273 49.2296C70.3137 49.2296 68.9213 47.8372 68.9213 46.1237V42.6507V37.7985C68.9213 36.4584 67.8336 35.3707 66.4935 35.3707C65.1535 35.3707 64.0657 36.4584 64.0657 37.7985V45.0916C64.0592 47.372 62.2015 49.2264 59.9179 49.2264C58.5779 49.2264 57.4901 50.3141 57.4901 51.6541C57.4901 52.9942 58.5779 54.0819 59.9179 54.0819C62.2408 54.0819 64.3573 53.1973 65.9529 51.7492C67.9712 53.5872 70.3105 54.0819 72.0273 54.0819C74.1766 54.0819 76.1293 53.2202 77.561 51.8311C78.9961 53.2202 80.9455 54.0819 83.0948 54.0819C87.4851 54.0819 91.0596 50.5107 91.0596 46.1171V37.7919C91.0596 36.4519 89.9718 35.3641 88.6318 35.3641L88.6285 35.3707Z" fill="url(#paint13_radial_25_7418)"/>
<path d="M74.5534 76.303H72.0339C70.9232 73.9572 69.5603 71.0936 68.9804 69.8224C68.5479 68.8657 68.122 67.909 67.6764 66.9589C67.3389 66.2381 66.7492 65.8613 65.9629 65.8613C65.1798 65.8613 64.5999 66.2414 64.2624 66.9589C64.056 67.3914 63.8627 67.8304 63.6661 68.2661C62.7979 70.1664 61.1728 73.6819 59.9737 76.303H57.4869C57.6671 75.9099 57.8473 75.5167 58.0243 75.1235C58.9842 73.0103 61.1958 68.2203 62.159 66.107C62.6963 64.9243 63.5711 64.1052 64.826 63.7448C66.8278 63.1681 68.8493 64.115 69.7307 66.0349C70.7987 68.3612 73.043 73.0725 74.5534 76.303Z" fill="url(#paint14_radial_25_7418)"/>
<path d="M129.806 76.3031H127.286C126.176 73.9573 124.813 71.0938 124.233 69.8225C123.8 68.8658 123.374 67.9091 122.929 66.959C122.591 66.2382 122.001 65.8614 121.215 65.8614C120.432 65.8614 119.852 66.2415 119.515 66.959C119.308 67.3915 119.115 67.8305 118.918 68.2663C118.05 70.1665 116.425 73.6821 115.226 76.3031H112.739C112.919 75.91 113.1 75.5168 113.277 75.1237C114.237 73.0104 116.448 68.2204 117.411 66.1071C117.949 64.9244 118.823 64.1053 120.078 63.7449C122.08 63.1683 124.102 64.1151 124.983 66.0351C126.051 68.3613 128.295 73.0727 129.806 76.3031Z" fill="url(#paint15_radial_25_7418)"/>
<path d="M110.056 76.2901H106.947C105.554 74.7797 103.713 72.7778 103.179 72.2012C101.6 72.2012 100.017 72.2012 98.438 72.2012H98.3036V72.3388C98.3036 73.2627 98.3036 74.1899 98.3036 75.1138C98.3036 75.1138 98.3036 75.1204 98.3036 75.1237V76.2802H97.4256C97.2749 76.3163 97.1176 76.313 96.9604 76.2802H96.043V74.4651C96.043 73.3479 96.043 72.2274 96.043 71.1101V69.9176C96.043 69.3049 96.5377 68.8102 97.1504 68.8102H97.3044C97.917 68.8102 98.4118 69.3049 98.4118 69.9176C99.3586 69.9176 100.309 69.9176 101.256 69.9176C102.514 69.9176 103.772 69.9176 105.027 69.9176C105.528 69.9176 106.023 69.7668 106.409 69.449C107.651 68.4334 107.31 66.4676 105.728 65.9335C105.512 65.8614 105.282 65.8352 105.053 65.8352C104.227 65.8352 103.398 65.8352 102.573 65.8352H101.203C99.8829 65.8352 98.5592 65.8352 97.2388 65.8352H97.2061C96.5803 65.8352 96.0725 65.3274 96.0725 64.7016C96.0725 64.0758 96.5803 63.568 97.2061 63.568H100.83H105.01C106.131 63.568 107.228 63.9677 108.048 64.7311C108.903 65.5305 109.384 66.5233 109.417 67.7027C109.466 69.3704 108.752 70.658 107.356 71.559C106.983 71.7982 106.586 71.962 106.173 72.0668L106.196 72.0767C106.347 72.2405 106.491 72.401 106.635 72.5583C106.937 72.8859 109.168 75.3203 110.059 76.2868L110.056 76.2901Z" fill="url(#paint16_radial_25_7418)"/>
<path d="M142.99 63.6556C142.737 63.5967 142.482 63.577 142.223 63.577C140.205 63.577 138.19 63.5672 136.175 63.577C134.455 63.5868 132.797 64.9727 132.541 66.6764C132.446 67.2957 132.479 67.8788 132.64 68.4227V68.4293C132.787 69.1304 133.164 69.6382 133.501 69.9692C133.616 70.0838 133.76 70.2051 133.937 70.323C133.944 70.3263 133.947 70.3296 133.954 70.3328C133.963 70.3394 133.973 70.3459 133.983 70.3525C134.081 70.418 134.14 70.4475 134.14 70.4475C134.73 70.785 135.628 71.07 136.981 71.07H139.189C140.152 71.07 141.116 71.0766 142.079 71.07C143.137 71.0602 143.812 72.0103 143.563 72.9441C143.389 73.5928 142.809 74.0286 142.092 74.0286C140.949 74.0286 139.805 74.0286 138.658 74.0286C137.826 74.0286 136.997 74.0417 136.165 74.022C135.641 74.0122 135.208 73.7107 134.966 73.2979C134.763 72.9474 134.393 72.7278 133.986 72.7278C133.115 72.7278 132.568 73.6747 133.003 74.4283C133.534 75.3489 134.452 76.0501 135.624 76.2401C135.805 76.2696 135.991 76.286 136.175 76.286C138.196 76.286 140.221 76.2991 142.246 76.286C144.009 76.2729 145.558 74.9066 145.824 73.1669C146.004 71.9874 145.706 70.9455 144.919 70.0511C144.454 69.5596 143.55 68.8945 142.007 68.8061C141.066 68.8061 140.123 68.8061 139.183 68.8061C138.242 68.8061 137.23 68.8061 136.257 68.8061C136.145 68.8061 136.031 68.8061 135.919 68.7831C135.238 68.6586 134.782 68.1049 134.75 67.3743C134.71 66.529 135.408 65.8311 136.257 65.8311C138.216 65.8311 140.179 65.8311 142.138 65.8311C142.266 65.8311 142.397 65.8377 142.518 65.8704C142.918 65.9687 143.255 66.2276 143.445 66.5978C143.635 66.9746 143.999 67.2334 144.421 67.2334H144.549C145.322 67.2334 145.847 66.4373 145.532 65.7296C145.07 64.6877 144.146 63.9112 142.983 63.6458L142.99 63.6556Z" fill="url(#paint17_radial_25_7418)"/>
<path d="M89.8571 63.5678H88.5236V63.5645H86.2564V63.5711H82.6295C82.0037 63.5711 81.4991 64.0789 81.4991 64.7047C81.4991 65.3305 82.0037 65.835 82.6295 65.835H86.2597V70.15H86.2531C86.1516 71.8864 84.936 73.5017 83.0849 73.9178C82.7769 73.9866 82.4558 74.0193 82.138 74.0226C80.9618 74.0292 81.0372 74.0292 79.5628 74.0292C78.9338 74.0292 78.4292 74.537 78.4292 75.1661C78.4292 75.7919 78.9338 76.2997 79.5595 76.303C81.0208 76.3062 80.9323 76.3095 82.0954 76.2899C84.71 76.2473 86.643 75.0448 87.8618 72.7383C88.2943 71.9192 88.5072 71.051 88.5269 70.15V65.8317H89.8604C90.4862 65.8317 90.9907 65.3239 90.9907 64.7014C90.9907 64.0789 90.4862 63.5711 89.8604 63.5711L89.8571 63.5678Z" fill="url(#paint18_radial_25_7418)"/>
<defs>
<radialGradient id="paint0_radial_25_7418" cx="0" cy="0" r="1" gradientUnits="userSpaceOnUse" gradientTransform="translate(21.968 11.2376) scale(6.71979)">
<stop offset="0.34" stop-color="#B2D235"/>
<stop offset="0.7" stop-color="#9ACA3C"/>
</radialGradient>
<radialGradient id="paint1_radial_25_7418" cx="0" cy="0" r="1" gradientUnits="userSpaceOnUse" gradientTransform="translate(19.3042 13.9014) scale(4.94073)">
<stop offset="0.42" stop-color="#005F60"/>
<stop offset="0.79" stop-color="#164D53"/>
</radialGradient>
<radialGradient id="paint2_radial_25_7418" cx="0" cy="0" r="1" gradientUnits="userSpaceOnUse" gradientTransform="translate(11.8047 21.5515) scale(8.80027)">
<stop offset="0.42" stop-color="#005F60"/>
<stop offset="0.79" stop-color="#164D53"/>
</radialGradient>
<radialGradient id="paint3_radial_25_7418" cx="0" cy="0" r="1" gradientUnits="userSpaceOnUse" gradientTransform="translate(38.3203 51.3663) scale(10.4548 10.4548)">
<stop offset="0.42" stop-color="#005F60"/>
<stop offset="0.79" stop-color="#164D53"/>
</radialGradient>
<radialGradient id="paint4_radial_25_7418" cx="0" cy="0" r="1" gradientUnits="userSpaceOnUse" gradientTransform="translate(29.5069 50.2101) scale(6.91637 6.91637)">
<stop offset="0.34" stop-color="#B2D235"/>
<stop offset="0.7" stop-color="#9ACA3C"/>
</radialGradient>
<radialGradient id="paint5_radial_25_7418" cx="0" cy="0" r="1" gradientUnits="userSpaceOnUse" gradientTransform="translate(20.6934 49.3714) scale(10.6907 10.6907)">
<stop offset="0.42" stop-color="#005F60"/>
<stop offset="0.79" stop-color="#164D53"/>
</radialGradient>
<radialGradient id="paint6_radial_25_7418" cx="0" cy="0" r="1" gradientUnits="userSpaceOnUse" gradientTransform="translate(12.6008 33.0317) scale(13.9736 13.9736)">
<stop offset="0.34" stop-color="#B2D235"/>
<stop offset="0.7" stop-color="#9ACA3C"/>
</radialGradient>
<radialGradient id="paint7_radial_25_7418" cx="0" cy="0" r="1" gradientUnits="userSpaceOnUse" gradientTransform="translate(3.06339 61.8249) scale(10.4385 10.4384)">
<stop offset="0.42" stop-color="#005F60"/>
<stop offset="0.79" stop-color="#164D53"/>
</radialGradient>
<radialGradient id="paint8_radial_25_7418" cx="0" cy="0" r="1" gradientUnits="userSpaceOnUse" gradientTransform="translate(142.423 30.2338) scale(4.21011)">
<stop offset="0.42" stop-color="#005F60"/>
<stop offset="0.79" stop-color="#164D53"/>
</radialGradient>
<radialGradient id="paint9_radial_25_7418" cx="0" cy="0" r="1" gradientUnits="userSpaceOnUse" gradientTransform="translate(117.686 47.8605) scale(17.0599)">
<stop offset="0.42" stop-color="#005F60"/>
<stop offset="0.79" stop-color="#164D53"/>
</radialGradient>
<radialGradient id="paint10_radial_25_7418" cx="0" cy="0" r="1" gradientUnits="userSpaceOnUse" gradientTransform="translate(143.596 44.5711) scale(6.72962 6.72962)">
<stop offset="0.42" stop-color="#005F60"/>
<stop offset="0.79" stop-color="#164D53"/>
</radialGradient>
<radialGradient id="paint11_radial_25_7418" cx="0" cy="0" r="1" gradientUnits="userSpaceOnUse" gradientTransform="translate(96.8718 40.9184) scale(8.52506 8.52506)">
<stop offset="0.42" stop-color="#005F60"/>
<stop offset="0.79" stop-color="#164D53"/>
</radialGradient>
<radialGradient id="paint12_radial_25_7418" cx="0" cy="0" r="1" gradientUnits="userSpaceOnUse" gradientTransform="translate(124.115 58.4241) scale(2.15912 2.15912)">
<stop offset="0.42" stop-color="#005F60"/>
<stop offset="0.79" stop-color="#164D53"/>
</radialGradient>
<radialGradient id="paint13_radial_25_7418" cx="0" cy="0" r="1" gradientUnits="userSpaceOnUse" gradientTransform="translate(74.2716 44.7279) scale(13.5903 13.5903)">
<stop offset="0.42" stop-color="#005F60"/>
<stop offset="0.79" stop-color="#164D53"/>
</radialGradient>
<radialGradient id="paint14_radial_25_7418" cx="0" cy="0" r="1" gradientUnits="userSpaceOnUse" gradientTransform="translate(66.0186 69.9371) scale(7.52577 7.52578)">
<stop offset="0.34" stop-color="#B2D235"/>
<stop offset="0.7" stop-color="#9ACA3C"/>
</radialGradient>
<radialGradient id="paint15_radial_25_7418" cx="0" cy="0" r="1" gradientUnits="userSpaceOnUse" gradientTransform="translate(121.274 69.9372) scale(7.52577 7.52578)">
<stop offset="0.34" stop-color="#B2D235"/>
<stop offset="0.7" stop-color="#9ACA3C"/>
</radialGradient>
<radialGradient id="paint16_radial_25_7418" cx="0" cy="0" r="1" gradientUnits="userSpaceOnUse" gradientTransform="translate(103.051 69.9372) scale(6.69686)">
<stop offset="0.34" stop-color="#B2D235"/>
<stop offset="0.7" stop-color="#9ACA3C"/>
</radialGradient>
<radialGradient id="paint17_radial_25_7418" cx="0" cy="0" r="1" gradientUnits="userSpaceOnUse" gradientTransform="translate(139.183 69.9364) scale(6.53304 6.53304)">
<stop offset="0.34" stop-color="#B2D235"/>
<stop offset="0.7" stop-color="#9ACA3C"/>
</radialGradient>
<radialGradient id="paint18_radial_25_7418" cx="0" cy="0" r="1" gradientUnits="userSpaceOnUse" gradientTransform="translate(84.7067 69.9337) scale(6.32663)">
<stop offset="0.34" stop-color="#B2D235"/>
<stop offset="0.7" stop-color="#9ACA3C"/>
</radialGradient>
</defs>
</svg>
