<svg width="28" height="28" viewBox="0 0 28 28" fill="none" xmlns="http://www.w3.org/2000/svg">
<path d="M22.9444 14.2129C22.9452 13.5769 22.8915 12.942 22.7838 12.3152H13.9905V15.9097H19.0269C18.9239 16.4838 18.7057 17.0311 18.3857 17.5185C18.0656 18.0059 17.6503 18.4235 17.1647 18.7459V21.0791H20.1705C21.9304 19.4549 22.9444 17.053 22.9444 14.2129Z" fill="#4285F4"/>
<path d="M13.9906 23.3333C16.5069 23.3333 18.6256 22.5063 20.1706 21.0805L17.1648 18.7472C16.3282 19.315 15.2507 19.639 13.9906 19.639C11.5586 19.639 9.49426 17.998 8.75608 15.7866H5.65964V18.1911C6.43571 19.7369 7.62574 21.0363 9.09686 21.9443C10.568 22.8524 12.2623 23.3333 13.9906 23.3333V23.3333Z" fill="#34A853"/>
<path d="M8.75598 15.7867C8.36573 14.6279 8.36573 13.373 8.75598 12.2142V9.80963H5.65953C5.00667 11.11 4.66666 12.5451 4.66666 14.0004C4.66666 15.4557 5.00667 16.8909 5.65953 18.1912L8.75598 15.7867Z" fill="#FBBC04"/>
<path d="M13.9906 8.36162C15.3204 8.33987 16.6053 8.84276 17.5676 9.76157L20.2289 7.09777C18.5413 5.51126 16.3057 4.64023 13.9906 4.6673C12.2623 4.66738 10.568 5.14828 9.09686 6.05632C7.62574 6.96435 6.43571 8.26378 5.65964 9.80953L8.75608 12.2141C9.49426 10.0027 11.5586 8.36162 13.9906 8.36162Z" fill="#EA4335"/>
</svg>
