<svg width="22" height="18" viewBox="0 0 22 18" fill="none" xmlns="http://www.w3.org/2000/svg">
<path d="M21.1916 2.68229C20.4282 3.01998 19.6186 3.24176 18.7896 3.34029C19.6634 2.81772 20.3173 1.9953 20.6296 1.02629C19.8096 1.51429 18.9106 1.85629 17.9736 2.04129C17.3442 1.36787 16.51 0.921257 15.6006 0.770879C14.6911 0.6205 13.7575 0.774785 12.9449 1.20975C12.1322 1.64471 11.486 2.33597 11.1067 3.17608C10.7274 4.01619 10.6363 4.95807 10.8476 5.85529C9.1847 5.77194 7.55792 5.33981 6.07288 4.58695C4.58783 3.83409 3.27772 2.77734 2.22759 1.48529C1.85588 2.12374 1.66055 2.84952 1.66159 3.58829C1.66159 5.03829 2.39959 6.31929 3.52159 7.06929C2.8576 7.04839 2.20822 6.86907 1.62759 6.54629V6.59829C1.62779 7.56399 1.96196 8.49991 2.57344 9.24735C3.18492 9.99479 4.03607 10.5078 4.98259 10.6993C4.3662 10.8663 3.7199 10.8909 3.09259 10.7712C3.35946 11.6025 3.8796 12.3294 4.58018 12.8504C5.28077 13.3713 6.12672 13.66 6.99959 13.6762C6.13207 14.3576 5.13877 14.8612 4.07647 15.1584C3.01417 15.4556 1.90372 15.5405 0.808594 15.4082C2.72029 16.6377 4.94569 17.2904 7.21859 17.2882C14.9116 17.2882 19.1186 10.9153 19.1186 5.38829C19.1186 5.20829 19.1136 5.02629 19.1056 4.84829C19.9245 4.25646 20.6312 3.52331 21.1926 2.68329L21.1916 2.68229Z" fill="#1DA1F2"/>
</svg>
